<!-- public/icons/sprite.svg -->
<svg xmlns="http://www.w3.org/2000/svg" style="display: none;">
  <symbol id="accessible" viewBox="0 0 16 16">
  <path fill="currentColor" d="M8 4c-0.367 0-0.681-0.131-0.942-0.392s-0.392-0.575-0.392-0.942 0.131-0.681 0.392-0.942c0.261-0.261 0.575-0.392 0.942-0.392s0.681 0.131 0.942 0.392c0.261 0.261 0.392 0.575 0.392 0.942s-0.131 0.681-0.392 0.942c-0.261 0.261-0.575 0.392-0.942 0.392zM11.333 14.667v-3.333h-3.333c-0.367 0-0.681-0.131-0.942-0.392s-0.392-0.575-0.392-0.942v-4c0-0.367 0.131-0.681 0.392-0.942s0.575-0.392 0.942-0.392c0.267 0 0.497 0.058 0.692 0.175s0.403 0.303 0.625 0.558c0.611 0.733 1.164 1.236 1.658 1.508s1.058 0.414 1.692 0.425v1.333c-0.589 0-1.183-0.128-1.783-0.383s-1.117-0.561-1.55-0.917v2.3h2c0.367 0 0.681 0.131 0.942 0.392s0.392 0.575 0.392 0.942v3.667h-1.333zM6.667 14.667c-0.922 0-1.708-0.325-2.358-0.975s-0.975-1.436-0.975-2.358c0-0.8 0.253-1.506 0.758-2.117s1.142-0.994 1.908-1.15v1.367c-0.389 0.156-0.708 0.403-0.958 0.742s-0.375 0.725-0.375 1.158c0 0.556 0.194 1.028 0.583 1.417s0.861 0.583 1.417 0.583c0.433 0 0.819-0.125 1.158-0.375s0.586-0.569 0.742-0.958h1.367c-0.156 0.767-0.539 1.403-1.15 1.908s-1.317 0.758-2.117 0.758z"></path>
  </symbol>
  <symbol id="addPhoto" viewBox="0 0 16 16">
  <path fill="currentColor" d="M2 14c-0.367 0-0.681-0.131-0.942-0.392s-0.392-0.575-0.392-0.942v-8c0-0.367 0.131-0.681 0.392-0.942s0.575-0.392 0.942-0.392h2.1l1.233-1.333h4v1.333h-3.417l-1.217 1.333h-2.7v8h10.667v-6h1.333v6c0 0.367-0.131 0.681-0.392 0.942s-0.575 0.392-0.942 0.392h-10.667zM12.667 4.667v-1.333h-1.333v-1.333h1.333v-1.333h1.333v1.333h1.333v1.333h-1.333v1.333h-1.333zM7.333 11.667c0.833 0 1.542-0.292 2.125-0.875s0.875-1.292 0.875-2.125-0.292-1.542-0.875-2.125c-0.583-0.583-1.292-0.875-2.125-0.875s-1.542 0.292-2.125 0.875c-0.583 0.583-0.875 1.292-0.875 2.125s0.292 1.542 0.875 2.125c0.583 0.583 1.292 0.875 2.125 0.875zM7.333 10.333c-0.467 0-0.861-0.161-1.183-0.483s-0.483-0.717-0.483-1.183c0-0.467 0.161-0.861 0.483-1.183s0.717-0.483 1.183-0.483c0.467 0 0.861 0.161 1.183 0.483s0.483 0.717 0.483 1.183c0 0.467-0.161 0.861-0.483 1.183s-0.717 0.483-1.183 0.483z"></path>
  </symbol>
  <symbol id="appPromo" viewBox="0 0 16 16">
  <path fill="currentColor" d="M10.667 7.333l-2.667 2.667-2.667-2.667 0.933-0.933 1.067 1.033v-2.767h1.333v2.767l1.067-1.033 0.933 0.933zM6.667 13.333h2.667v-0.667h-2.667v0.667zM4.667 15.333c-0.367 0-0.681-0.131-0.942-0.392s-0.392-0.575-0.392-0.942v-12c0-0.367 0.131-0.681 0.392-0.942s0.575-0.392 0.942-0.392h6.667c0.367 0 0.681 0.131 0.942 0.392s0.392 0.575 0.392 0.942v12c0 0.367-0.131 0.681-0.392 0.942s-0.575 0.392-0.942 0.392h-6.667zM4.667 12v2h6.667v-2h-6.667zM4.667 10.667h6.667v-6.667h-6.667v6.667zM4.667 2.667h6.667v-0.667h-6.667v0.667z"></path>
  </symbol>
  <symbol id="arrow" viewBox="0 0 16 16">
  <path fill="currentColor" d="M10.266 8l-4 4-0.933-0.933 3.067-3.067-3.067-3.067 0.933-0.933 4 4z"></path>
  </symbol>
  <symbol id="arrowSplit" viewBox="0 0 16 16">
  <path fill="currentColor" d="M2.667 8.667v-1.333h5.067l3.333-3.333h-1.733v-1.333h4v4h-1.333v-1.733l-3.733 3.733h-5.6zM9.333 13.333v-1.333h1.733l-2.133-2.1 0.967-0.967 2.1 2.133v-1.733h1.333v4h-4z"></path>
  </symbol>
  <symbol id="bankVerify" viewBox="0 0 16 16">
  <path fill="currentColor" d="M2.182 11.13v-4.87h1.455v4.87h-1.455zM6.545 11.13v-4.87h1.455v4.87h-1.455zM0 4.87v-1.391l7.273-3.478 7.273 3.478v1.391h-14.545zM3.255 3.478h8.036l-4.018-1.913-4.018 1.913zM0 13.913v-1.391h8.764c0.024 0.244 0.055 0.478 0.091 0.704s0.091 0.455 0.164 0.687h-9.018zM10.909 8.522v-2.261h1.455v1.565l-1.455 0.696zM13.091 16c-0.836-0.197-1.53-0.658-2.082-1.383s-0.827-1.528-0.827-2.409v-1.774l2.909-1.391 2.909 1.391v1.774c0 0.881-0.276 1.684-0.827 2.409s-1.245 1.185-2.082 1.383zM12.564 13.913l2.527-2.4-0.764-0.73-1.764 1.652-0.709-0.678-0.764 0.748 1.473 1.409z"></path>
  </symbol>
  <symbol id="bedTime" viewBox="0 0 16 16">
  <path fill="currentColor" d="M8.067 14.667c-0.933 0-1.808-0.178-2.625-0.533s-1.528-0.836-2.133-1.442-1.086-1.317-1.442-2.133c-0.356-0.817-0.533-1.692-0.533-2.625 0-1.622 0.517-3.053 1.55-4.292s2.35-2.008 3.95-2.308c-0.2 1.1-0.139 2.175 0.183 3.225s0.878 1.969 1.667 2.758c0.789 0.789 1.708 1.344 2.758 1.667s2.125 0.383 3.225 0.183c-0.289 1.6-1.056 2.917-2.3 3.95s-2.678 1.55-4.3 1.55zM8.067 13.333c0.978 0 1.883-0.244 2.717-0.733s1.489-1.161 1.967-2.017c-0.956-0.089-1.861-0.331-2.717-0.725s-1.622-0.931-2.3-1.608c-0.678-0.678-1.217-1.444-1.617-2.3s-0.639-1.761-0.717-2.717c-0.856 0.478-1.525 1.136-2.008 1.975s-0.725 1.747-0.725 2.725c0 1.5 0.525 2.775 1.575 3.825s2.325 1.575 3.825 1.575z"></path>
  </symbol>
  <symbol id="bookmark" viewBox="0 0 16 16">
  <path fill="currentColor" d="M11.883 6l-1.883-1.883 0.933-0.95 0.95 0.95 2.35-2.367 0.95 0.95-3.3 3.3zM3.333 14v-10.667c0-0.367 0.131-0.681 0.392-0.942s0.575-0.392 0.942-0.392h4v1.333h-4v8.633l3.333-1.433 3.333 1.433v-4.633h1.333v6.667l-4.667-2-4.667 2z"></path>
  </symbol>
  <symbol id="bookmarks" viewBox="0 0 16 16">
  <path fill="currentColor" d="M2.667 14.667v-9.333c0-0.367 0.131-0.681 0.392-0.942s0.575-0.392 0.942-0.392h5.333c0.367 0 0.681 0.131 0.942 0.392s0.392 0.575 0.392 0.942v9.333l-4-2-4 2zM4.001 12.65l2.667-1.433 2.667 1.433v-7.317h-5.333v7.317zM12.001 12v-9.333h-7.333v-1.333h7.333c0.367 0 0.681 0.131 0.942 0.392s0.392 0.575 0.392 0.942v9.333h-1.333z"></path>
  </symbol>
  <symbol id="call" viewBox="0 0 16 16">
  <path fill="currentColor" d="M13.3 14c-1.389 0-2.761-0.303-4.117-0.908s-2.589-1.464-3.7-2.575-1.969-2.344-2.575-3.7c-0.606-1.356-0.908-2.728-0.908-4.117 0-0.2 0.067-0.367 0.2-0.5s0.3-0.2 0.5-0.2h2.7c0.156 0 0.294 0.053 0.417 0.158s0.194 0.231 0.217 0.375l0.433 2.333c0.022 0.178 0.017 0.328-0.017 0.45s-0.094 0.228-0.183 0.317l-1.617 1.633c0.222 0.411 0.486 0.808 0.792 1.192s0.642 0.753 1.008 1.108c0.344 0.344 0.706 0.664 1.083 0.958s0.778 0.564 1.2 0.808l1.567-1.567c0.1-0.1 0.231-0.175 0.392-0.225s0.319-0.064 0.475-0.042l2.3 0.467c0.156 0.044 0.283 0.125 0.383 0.242s0.15 0.247 0.15 0.392v2.7c0 0.2-0.067 0.367-0.2 0.5s-0.3 0.2-0.5 0.2zM4.017 6l1.1-1.1-0.283-1.567h-1.483c0.056 0.456 0.133 0.906 0.233 1.35s0.244 0.883 0.433 1.317zM9.983 11.967c0.433 0.189 0.875 0.339 1.325 0.45s0.903 0.183 1.358 0.217v-1.467l-1.567-0.317-1.117 1.117z"></path>
  </symbol>
  <symbol id="cancel" viewBox="0 0 16 16">
  <path fill="currentColor" d="M5.12 12l2.88-2.88 2.88 2.88 1.12-1.12-2.88-2.88 2.88-2.88-1.12-1.12-2.88 2.88-2.88-2.88-1.12 1.12 2.88 2.88-2.88 2.88 1.12 1.12zM8 16c-1.107 0-2.147-0.21-3.12-0.63s-1.82-0.99-2.54-1.71-1.29-1.567-1.71-2.54c-0.42-0.973-0.63-2.013-0.63-3.12s0.21-2.147 0.63-3.12c0.42-0.973 0.99-1.82 1.71-2.54s1.567-1.29 2.54-1.71c0.973-0.42 2.013-0.63 3.12-0.63s2.147 0.21 3.12 0.63c0.973 0.42 1.82 0.99 2.54 1.71s1.29 1.567 1.71 2.54c0.42 0.973 0.63 2.013 0.63 3.12s-0.21 2.147-0.63 3.12c-0.42 0.973-0.99 1.82-1.71 2.54s-1.567 1.29-2.54 1.71c-0.973 0.42-2.013 0.63-3.12 0.63z"></path>
  </symbol>
  <symbol id="chatBubble" viewBox="0 0 16 16">
  <path fill="currentColor" d="M1.333 14.667v-12c0-0.367 0.131-0.681 0.392-0.942s0.575-0.392 0.942-0.392h10.667c0.367 0 0.681 0.131 0.942 0.392s0.392 0.575 0.392 0.942v8c0 0.367-0.131 0.681-0.392 0.942s-0.575 0.392-0.942 0.392h-9.333l-2.667 2.667zM3.433 10.667h9.9v-8h-10.667v8.75l0.767-0.75z"></path>
  </symbol>
  <symbol id="checkBox" viewBox="0 0 16 16">
  <path fill="currentColor" d="M3.333 14c-0.367 0-0.681-0.131-0.942-0.392s-0.392-0.575-0.392-0.942v-9.333c0-0.367 0.131-0.681 0.392-0.942s0.575-0.392 0.942-0.392h9.333c0.367 0 0.681 0.131 0.942 0.392s0.392 0.575 0.392 0.942v9.333c0 0.367-0.131 0.681-0.392 0.942s-0.575 0.392-0.942 0.392h-9.333zM3.333 12.667h9.333v-9.333h-9.333v9.333z"></path>
  </symbol>
  <symbol id="cities" viewBox="0 0 16 16">
  <path fill="currentColor" d="M6.4 15.48v-4.56l1.12-3.2c0.067-0.147 0.163-0.27 0.29-0.37s0.283-0.15 0.47-0.15h5.84c0.187 0 0.347 0.050 0.48 0.15s0.227 0.223 0.28 0.37l1.12 3.2v4.56c0 0.147-0.050 0.27-0.15 0.37s-0.223 0.15-0.37 0.15h-0.56c-0.147 0-0.27-0.050-0.37-0.15s-0.15-0.223-0.15-0.37v-0.68h-6.4v0.68c0 0.147-0.050 0.27-0.15 0.37s-0.223 0.15-0.37 0.15h-0.56c-0.147 0-0.27-0.050-0.37-0.15s-0.15-0.223-0.15-0.37zM8 10h6.4l-0.56-1.6h-5.28l-0.56 1.6zM8.8 13.2c0.227 0 0.417-0.077 0.57-0.23s0.23-0.343 0.23-0.57-0.077-0.417-0.23-0.57c-0.153-0.153-0.343-0.23-0.57-0.23s-0.417 0.077-0.57 0.23c-0.153 0.153-0.23 0.343-0.23 0.57s0.077 0.417 0.23 0.57c0.153 0.153 0.343 0.23 0.57 0.23zM13.6 13.2c0.227 0 0.417-0.077 0.57-0.23s0.23-0.343 0.23-0.57-0.077-0.417-0.23-0.57c-0.153-0.153-0.343-0.23-0.57-0.23s-0.417 0.077-0.57 0.23c-0.153 0.153-0.23 0.343-0.23 0.57s0.077 0.417 0.23 0.57c0.153 0.153 0.343 0.23 0.57 0.23zM3.2 9.6v-1.6h1.6v1.6h-1.6zM7.2 4.8v-1.6h1.6v1.6h-1.6zM3.2 12.8v-1.6h1.6v1.6h-1.6zM3.2 16v-1.6h1.6v1.6h-1.6zM0 16v-11.2h4v-4.8h8v5.6h-1.6v-4h-4.8v4.8h-4v9.6h-1.6zM7.6 13.6h7.2v-2.4h-7.2v2.4z"></path>
  </symbol>
  <symbol id="clearDay" viewBox="0 0 16 16">
  <path fill="currentColor" d="M7.333 3.333v-2.667h1.333v2.667h-1.333zM11.767 5.167l-0.917-0.917 1.867-1.917 0.933 0.95-1.883 1.883zM12.667 8.667v-1.333h2.667v1.333h-2.667zM7.333 15.333v-2.667h1.333v2.667h-1.333zM4.233 5.133l-1.9-1.85 0.95-0.933 1.883 1.883-0.933 0.9zM12.7 13.667l-1.85-1.917 0.9-0.9 1.9 1.833-0.95 0.983zM0.667 8.667v-1.333h2.667v1.333h-2.667zM3.283 13.667l-0.933-0.95 1.867-1.867 0.483 0.45 0.483 0.467-1.9 1.9zM8 12c-1.111 0-2.056-0.389-2.833-1.167s-1.167-1.722-1.167-2.833c0-1.111 0.389-2.056 1.167-2.833s1.722-1.167 2.833-1.167c1.111 0 2.056 0.389 2.833 1.167s1.167 1.722 1.167 2.833c0 1.111-0.389 2.056-1.167 2.833s-1.722 1.167-2.833 1.167zM8 10.667c0.733 0 1.361-0.261 1.883-0.783s0.783-1.15 0.783-1.883c0-0.733-0.261-1.361-0.783-1.883s-1.15-0.783-1.883-0.783c-0.733 0-1.361 0.261-1.883 0.783s-0.783 1.15-0.783 1.883c0 0.733 0.261 1.361 0.783 1.883s1.15 0.783 1.883 0.783z"></path>
  </symbol>
  <symbol id="close" viewBox="0 0 16 16">
  <path fill="currentColor" d="M5.6 11.333l-0.933-0.933 2.4-2.4-2.4-2.383 0.933-0.933 2.4 2.4 2.383-2.4 0.933 0.933-2.4 2.383 2.4 2.4-0.933 0.933-2.383-2.4-2.4 2.4z"></path>
  </symbol>
  <symbol id="compare" viewBox="0 0 16 16">
  <path fill="currentColor" d="M1.333 14v-1.333h6v-7.45c-0.289-0.1-0.539-0.256-0.75-0.467s-0.367-0.461-0.467-0.75h-2.117l2 4.667c0 0.556-0.228 1.028-0.683 1.417s-1.006 0.583-1.65 0.583c-0.644 0-1.194-0.194-1.65-0.583s-0.683-0.861-0.683-1.417l2-4.667h-1.333v-1.333h4.117c0.133-0.389 0.372-0.708 0.717-0.958s0.733-0.375 1.167-0.375c0.433 0 0.822 0.125 1.167 0.375s0.583 0.569 0.717 0.958h4.117v1.333h-1.333l2 4.667c0 0.556-0.228 1.028-0.683 1.417s-1.006 0.583-1.65 0.583c-0.644 0-1.194-0.194-1.65-0.583s-0.683-0.861-0.683-1.417l2-4.667h-2.117c-0.1 0.289-0.256 0.539-0.467 0.75s-0.461 0.367-0.75 0.467v7.45h6v1.333h-13.333zM11.083 8.667h2.5l-1.25-2.9-1.25 2.9zM2.417 8.667h2.5l-1.25-2.9-1.25 2.9zM8 4c0.189 0 0.347-0.064 0.475-0.192s0.192-0.286 0.192-0.475-0.064-0.347-0.192-0.475c-0.128-0.128-0.286-0.192-0.475-0.192s-0.347 0.064-0.475 0.192c-0.128 0.128-0.192 0.286-0.192 0.475s0.064 0.347 0.192 0.475c0.128 0.128 0.286 0.192 0.475 0.192z"></path>
  </symbol>
  <symbol id="contact" viewBox="0 0 16 16">
  <path fill="currentColor" d="M8 14.667l-0.167-2h-0.167c-1.578 0-2.917-0.55-4.017-1.65s-1.65-2.439-1.65-4.017c0-1.578 0.55-2.917 1.65-4.017s2.439-1.65 4.017-1.65c0.789 0 1.525 0.147 2.208 0.442s1.283 0.7 1.8 1.217c0.517 0.517 0.922 1.117 1.217 1.8s0.442 1.419 0.442 2.208c0 0.833-0.136 1.633-0.408 2.4s-0.644 1.478-1.117 2.133c-0.472 0.656-1.033 1.25-1.683 1.783s-1.358 0.983-2.125 1.35zM9.333 12.233c0.789-0.667 1.431-1.447 1.925-2.342s0.742-1.858 0.742-2.892c0-1.211-0.419-2.236-1.258-3.075s-1.864-1.258-3.075-1.258c-1.211 0-2.236 0.419-3.075 1.258s-1.258 1.864-1.258 3.075c0 1.211 0.419 2.236 1.258 3.075s1.864 1.258 3.075 1.258h1.667v0.9zM7.65 10.65c0.189 0 0.35-0.067 0.483-0.2s0.2-0.294 0.2-0.483c0-0.189-0.067-0.35-0.2-0.483s-0.294-0.2-0.483-0.2c-0.189 0-0.35 0.067-0.483 0.2s-0.2 0.294-0.2 0.483c0 0.189 0.067 0.35 0.2 0.483s0.294 0.2 0.483 0.2zM7.167 8.533h1c0-0.333 0.033-0.567 0.1-0.7s0.278-0.378 0.633-0.733c0.2-0.2 0.367-0.417 0.5-0.65s0.2-0.483 0.2-0.75c0-0.567-0.192-0.992-0.575-1.275s-0.836-0.425-1.358-0.425c-0.489 0-0.9 0.136-1.233 0.408s-0.567 0.603-0.7 0.992l0.933 0.367c0.056-0.189 0.161-0.375 0.317-0.558s0.383-0.275 0.683-0.275c0.3 0 0.525 0.083 0.675 0.25s0.225 0.35 0.225 0.55c0 0.189-0.056 0.358-0.167 0.508s-0.244 0.303-0.4 0.458c-0.389 0.333-0.625 0.597-0.708 0.792s-0.125 0.542-0.125 1.042z"></path>
  </symbol>
  <symbol id="crown" viewBox="0 0 16 16">
  <path fill="currentColor" d="M3.334 13.334v-1.333h9.333v1.333h-9.333zM3.334 11l-0.85-5.35c-0.022 0-0.047 0.003-0.075 0.008s-0.053 0.008-0.075 0.008c-0.278 0-0.514-0.097-0.708-0.292s-0.292-0.431-0.292-0.708c0-0.278 0.097-0.514 0.292-0.708s0.431-0.292 0.708-0.292c0.278 0 0.514 0.097 0.708 0.292s0.292 0.431 0.292 0.708c0 0.078-0.008 0.15-0.025 0.217s-0.036 0.128-0.058 0.183l2.083 0.933 2.083-2.85c-0.122-0.089-0.222-0.206-0.3-0.35s-0.117-0.3-0.117-0.467c0-0.278 0.097-0.514 0.292-0.708s0.431-0.292 0.708-0.292 0.514 0.097 0.708 0.292c0.194 0.194 0.292 0.431 0.292 0.708 0 0.167-0.039 0.322-0.117 0.467s-0.178 0.261-0.3 0.35l2.083 2.85 2.083-0.933c-0.022-0.056-0.042-0.117-0.058-0.183s-0.025-0.139-0.025-0.217c0-0.278 0.097-0.514 0.292-0.708s0.431-0.292 0.708-0.292c0.278 0 0.514 0.097 0.708 0.292s0.292 0.431 0.292 0.708-0.097 0.514-0.292 0.708c-0.194 0.194-0.431 0.292-0.708 0.292-0.022 0-0.047-0.003-0.075-0.008s-0.053-0.008-0.075-0.008l-0.85 5.35h-9.333z"></path>
  </symbol>
  <symbol id="dashboard" viewBox="0 0 16 16">
  <path fill="currentColor" d="M2 2h5.333v5.333h-5.333v-5.333zM8.667 2h5.333v5.333h-5.333v-5.333zM2 8.667h5.333v5.333h-5.333v-5.333zM10.667 8.667h1.333v2h2v1.333h-2v2h-1.333v-2h-2v-1.333h2v-2zM10 3.333v2.667h2.667v-2.667h-2.667zM3.333 3.333v2.667h2.667v-2.667h-2.667zM3.333 10v2.667h2.667v-2.667h-2.667z"></path>
  </symbol>
  <symbol id="delete" viewBox="0 0 16 16">
  <path fill="currentColor" d="M4.667 14c-0.367 0-0.681-0.131-0.942-0.392s-0.392-0.575-0.392-0.942v-8.667h-0.667v-1.333h3.333v-0.667h4v0.667h3.333v1.333h-0.667v8.667c0 0.367-0.131 0.681-0.392 0.942s-0.575 0.392-0.942 0.392h-6.667zM11.333 4h-6.667v8.667h6.667v-8.667zM6 11.333h1.333v-6h-1.333v6zM8.667 11.333h1.333v-6h-1.333v6z"></path>
  </symbol>
  <symbol id="description" viewBox="0 0 16 16">
  <path fill="currentColor" d="M5.334 12h5.333v-1.333h-5.333v1.333zM5.334 9.333h5.333v-1.333h-5.333v1.333zM4.001 14.667c-0.367 0-0.681-0.131-0.942-0.392s-0.392-0.575-0.392-0.942v-10.667c0-0.367 0.131-0.681 0.392-0.942s0.575-0.392 0.942-0.392h5.333l4 4v8c0 0.367-0.13 0.681-0.392 0.942s-0.575 0.392-0.942 0.392h-8zM8.667 6v-3.333h-4.667v10.667h8v-7.333h-3.333z"></path>
  </symbol>
  <symbol id="directionBus" viewBox="0 0 16 16">
  <path fill="currentColor" d="M3.333 14c-0.189 0-0.347-0.064-0.475-0.192s-0.192-0.286-0.192-0.475v-1.367c-0.2-0.222-0.361-0.469-0.483-0.742s-0.183-0.569-0.183-0.892v-6.333c0-0.922 0.428-1.597 1.283-2.025s2.206-0.642 4.050-0.642c1.911 0 3.278 0.206 4.1 0.617s1.233 1.094 1.233 2.050v6.333c0 0.322-0.061 0.619-0.183 0.892s-0.283 0.519-0.483 0.742v1.367c0 0.189-0.064 0.347-0.192 0.475s-0.286 0.192-0.475 0.192h-0.667c-0.189 0-0.347-0.064-0.475-0.192s-0.192-0.286-0.192-0.475v-0.667h-5.333v0.667c0 0.189-0.064 0.347-0.192 0.475s-0.286 0.192-0.475 0.192h-0.667zM3.333 6.667h8v-2h-8v2zM5 10.667c0.278 0 0.514-0.097 0.708-0.292s0.292-0.431 0.292-0.708c0-0.278-0.097-0.514-0.292-0.708s-0.431-0.292-0.708-0.292c-0.278 0-0.514 0.097-0.708 0.292s-0.292 0.431-0.292 0.708c0 0.278 0.097 0.514 0.292 0.708s0.431 0.292 0.708 0.292zM9.667 10.667c0.278 0 0.514-0.097 0.708-0.292s0.292-0.431 0.292-0.708c0-0.278-0.097-0.514-0.292-0.708s-0.431-0.292-0.708-0.292c-0.278 0-0.514 0.097-0.708 0.292s-0.292 0.431-0.292 0.708c0 0.278 0.097 0.514 0.292 0.708s0.431 0.292 0.708 0.292z"></path>
  </symbol>
  <symbol id="distance" viewBox="0 0 16 16">
  <path fill="currentColor" d="M8 14.004c-1.178 0-2.139-0.177-2.883-0.531s-1.117-0.81-1.117-1.37c0-0.253 0.081-0.488 0.242-0.705s0.386-0.404 0.675-0.562l1.050 0.934c-0.1 0.042-0.208 0.090-0.325 0.143s-0.208 0.116-0.275 0.19c0.144 0.169 0.478 0.317 1 0.444s1.067 0.19 1.633 0.19 1.114-0.063 1.642-0.19c0.528-0.127 0.864-0.275 1.008-0.444-0.078-0.084-0.178-0.153-0.3-0.206s-0.239-0.1-0.35-0.143l1.033-0.95c0.311 0.169 0.55 0.362 0.717 0.578s0.25 0.457 0.25 0.721c0 0.56-0.372 1.016-1.117 1.37s-1.706 0.531-2.883 0.531zM8 12.103c-1.567-1.098-2.736-2.165-3.508-3.199s-1.158-2.048-1.158-3.041c0-0.75 0.142-1.407 0.425-1.972s0.647-1.037 1.092-1.418c0.444-0.38 0.944-0.665 1.5-0.855s1.106-0.285 1.65-0.285 1.094 0.095 1.65 0.285c0.556 0.19 1.056 0.475 1.5 0.855s0.808 0.853 1.092 1.418 0.425 1.222 0.425 1.972c0 0.993-0.386 2.006-1.158 3.041s-1.942 2.101-3.508 3.199zM8 7.035c0.367 0 0.681-0.124 0.942-0.372s0.392-0.546 0.392-0.895c0-0.348-0.13-0.647-0.392-0.895s-0.575-0.372-0.942-0.372c-0.367 0-0.681 0.124-0.942 0.372s-0.392 0.546-0.392 0.895 0.131 0.647 0.392 0.895c0.261 0.248 0.575 0.372 0.942 0.372z"></path>
  </symbol>
  <symbol id="edit" viewBox="0 0 16 16">
  <path fill="currentColor" d="M3.333 12.667h0.95l6.517-6.517-0.95-0.95-6.517 6.517v0.95zM2 14v-2.833l8.8-8.783c0.133-0.122 0.281-0.217 0.442-0.283s0.331-0.1 0.508-0.1c0.178 0 0.35 0.033 0.517 0.1s0.311 0.167 0.433 0.3l0.917 0.933c0.133 0.122 0.231 0.267 0.292 0.433s0.092 0.333 0.092 0.5c0 0.178-0.031 0.347-0.092 0.508s-0.158 0.308-0.292 0.442l-8.783 8.783h-2.833zM10.317 5.683l-0.467-0.483 0.95 0.95-0.483-0.467z"></path>
  </symbol>
  <symbol id="face" viewBox="0 0 16 16">
  <path fill="currentColor" d="M5.999 9.5c-0.233 0-0.431-0.081-0.592-0.242s-0.242-0.358-0.242-0.592 0.081-0.431 0.242-0.592c0.161-0.161 0.358-0.242 0.592-0.242s0.431 0.081 0.592 0.242c0.161 0.161 0.242 0.358 0.242 0.592s-0.081 0.431-0.242 0.592c-0.161 0.161-0.358 0.242-0.592 0.242zM9.999 9.5c-0.233 0-0.431-0.081-0.592-0.242s-0.242-0.358-0.242-0.592 0.081-0.431 0.242-0.592c0.161-0.161 0.358-0.242 0.592-0.242s0.431 0.081 0.592 0.242c0.161 0.161 0.242 0.358 0.242 0.592s-0.081 0.431-0.242 0.592c-0.161 0.161-0.358 0.242-0.592 0.242zM7.999 13.333c1.489 0 2.75-0.517 3.783-1.55s1.55-2.294 1.55-3.783c0-0.267-0.017-0.525-0.050-0.775s-0.094-0.492-0.183-0.725c-0.233 0.056-0.467 0.097-0.7 0.125s-0.478 0.042-0.733 0.042c-1.011 0-1.967-0.217-2.867-0.65s-1.667-1.039-2.3-1.817c-0.356 0.867-0.864 1.619-1.525 2.258s-1.431 1.119-2.308 1.442v0.1c0 1.489 0.517 2.75 1.55 3.783s2.294 1.55 3.783 1.55zM7.999 14.667c-0.922 0-1.789-0.175-2.6-0.525s-1.517-0.825-2.117-1.425-1.075-1.306-1.425-2.117c-0.35-0.811-0.525-1.678-0.525-2.6s0.175-1.789 0.525-2.6c0.35-0.811 0.825-1.517 1.425-2.117s1.306-1.075 2.117-1.425c0.811-0.35 1.678-0.525 2.6-0.525s1.789 0.175 2.6 0.525c0.811 0.35 1.517 0.825 2.117 1.425s1.075 1.306 1.425 2.117c0.35 0.811 0.525 1.678 0.525 2.6s-0.175 1.789-0.525 2.6c-0.35 0.811-0.825 1.517-1.425 2.117s-1.306 1.075-2.117 1.425c-0.811 0.35-1.678 0.525-2.6 0.525zM7.099 2.75c0.467 0.778 1.1 1.403 1.9 1.875s1.689 0.708 2.667 0.708c0.156 0 0.306-0.008 0.45-0.025s0.294-0.036 0.45-0.058c-0.467-0.778-1.1-1.403-1.9-1.875s-1.689-0.708-2.667-0.708c-0.156 0-0.306 0.008-0.45 0.025s-0.294 0.036-0.45 0.058zM2.949 6.317c0.567-0.322 1.061-0.739 1.483-1.25s0.739-1.083 0.95-1.717c-0.567 0.322-1.061 0.739-1.483 1.25s-0.739 1.083-0.95 1.717z"></path>
  </symbol>
  <symbol id="favroite" viewBox="0 0 16 16">
  <path fill="currentColor" d="M8 13.551l-0.736-0.662c-1.105-1.003-2.019-1.864-2.742-2.585s-1.295-1.362-1.718-1.924c-0.423-0.562-0.718-1.075-0.886-1.538s-0.252-0.933-0.252-1.41c0-0.946 0.319-1.738 0.957-2.376s1.43-0.957 2.376-0.957c0.582 0 1.132 0.136 1.65 0.408s0.968 0.663 1.35 1.171c0.382-0.509 0.832-0.899 1.35-1.171s1.068-0.408 1.65-0.408c0.946 0 1.738 0.319 2.376 0.957s0.957 1.43 0.957 2.376c0 0.477-0.084 0.947-0.252 1.41s-0.463 0.976-0.886 1.538c-0.423 0.562-0.994 1.203-1.715 1.924s-1.635 1.582-2.745 2.585l-0.736 0.662zM8 12.2c1.067-0.96 1.944-1.782 2.633-2.468s1.233-1.281 1.633-1.787c0.4-0.506 0.678-0.955 0.833-1.347s0.233-0.781 0.233-1.165c0-0.667-0.222-1.222-0.667-1.667s-1-0.667-1.667-0.667c-0.526 0-1.013 0.149-1.46 0.448s-0.8 0.714-1.061 1.247h-0.959c-0.265-0.537-0.62-0.953-1.064-1.25s-0.93-0.445-1.456-0.445c-0.662 0-1.217 0.222-1.663 0.667s-0.67 1-0.67 1.667c0 0.385 0.078 0.773 0.233 1.165s0.433 0.841 0.833 1.347c0.4 0.506 0.944 1.1 1.633 1.783s1.567 1.507 2.633 2.471z"></path>
  </symbol>
  <symbol id="formetList" viewBox="0 0 16 16">
  <path fill="currentColor" d="M6 12.667v-1.333h8v1.333h-8zM6 8.667v-1.333h8v1.333h-8zM6 4.667v-1.333h8v1.333h-8zM3.333 13.333c-0.367 0-0.681-0.131-0.942-0.392s-0.392-0.575-0.392-0.942c0-0.367 0.131-0.681 0.392-0.942s0.575-0.392 0.942-0.392c0.367 0 0.681 0.131 0.942 0.392s0.392 0.575 0.392 0.942c0 0.367-0.131 0.681-0.392 0.942s-0.575 0.392-0.942 0.392zM3.333 9.333c-0.367 0-0.681-0.131-0.942-0.392s-0.392-0.575-0.392-0.942c0-0.367 0.131-0.681 0.392-0.942s0.575-0.392 0.942-0.392c0.367 0 0.681 0.131 0.942 0.392s0.392 0.575 0.392 0.942c0 0.367-0.131 0.681-0.392 0.942s-0.575 0.392-0.942 0.392zM3.333 5.333c-0.367 0-0.681-0.131-0.942-0.392s-0.392-0.575-0.392-0.942c0-0.367 0.131-0.681 0.392-0.942s0.575-0.392 0.942-0.392c0.367 0 0.681 0.131 0.942 0.392s0.392 0.575 0.392 0.942c0 0.367-0.131 0.681-0.392 0.942s-0.575 0.392-0.942 0.392z"></path>
  </symbol>
  <symbol id="forYou" viewBox="0 0 16 16">
  <path fill="currentColor" d="M8 8c0.9 0 1.839-0.092 2.817-0.275s1.817-0.425 2.517-0.725v6.667c-0.667 0.3-1.478 0.542-2.433 0.725s-1.922 0.275-2.9 0.275c-0.978 0-1.944-0.092-2.9-0.275s-1.767-0.425-2.433-0.725v-6.667c0.7 0.3 1.539 0.542 2.517 0.725s1.917 0.275 2.817 0.275zM12 12.667v-3.833c-0.556 0.156-1.197 0.278-1.925 0.367s-1.419 0.133-2.075 0.133-1.347-0.044-2.075-0.133c-0.728-0.089-1.369-0.211-1.925-0.367v3.833c0.556 0.2 1.194 0.361 1.917 0.483s1.417 0.183 2.083 0.183c0.667 0 1.361-0.061 2.083-0.183s1.361-0.283 1.917-0.483zM8 1.333c0.733 0 1.361 0.261 1.883 0.783s0.783 1.15 0.783 1.883-0.261 1.361-0.783 1.883c-0.522 0.522-1.15 0.783-1.883 0.783s-1.361-0.261-1.883-0.783c-0.522-0.522-0.783-1.15-0.783-1.883s0.261-1.361 0.783-1.883c0.522-0.522 1.15-0.783 1.883-0.783zM8 5.333c0.367 0 0.681-0.131 0.942-0.392s0.392-0.575 0.392-0.942c0-0.367-0.131-0.681-0.392-0.942s-0.575-0.392-0.942-0.392c-0.367 0-0.681 0.131-0.942 0.392s-0.392 0.575-0.392 0.942c0 0.367 0.131 0.681 0.392 0.942s0.575 0.392 0.942 0.392z"></path>
  </symbol>
  <symbol id="grid" viewBox="0 0 16 16">
  <path fill="currentColor" d="M2 7.333v-5.333h5.333v5.333h-5.333zM2 14v-5.333h5.333v5.333h-5.333zM8.667 7.333v-5.333h5.333v5.333h-5.333zM8.667 14v-5.333h5.333v5.333h-5.333zM3.333 6h2.667v-2.667h-2.667v2.667zM10 6h2.667v-2.667h-2.667v2.667zM10 12.667h2.667v-2.667h-2.667v2.667zM3.333 12.667h2.667v-2.667h-2.667v2.667z"></path>
  </symbol>
  <symbol id="groups" viewBox="0 0 16 16">
  <path fill="currentColor" d="M0 12v-1.050c0-0.478 0.244-0.867 0.733-1.167s1.133-0.45 1.933-0.45c0.144 0 0.283 0.003 0.417 0.008s0.261 0.019 0.383 0.042c-0.156 0.233-0.272 0.478-0.35 0.733s-0.117 0.522-0.117 0.8v1.083h-3zM4 12v-1.083c0-0.356 0.097-0.681 0.292-0.975s0.469-0.553 0.825-0.775 0.781-0.389 1.275-0.5c0.494-0.111 1.031-0.167 1.608-0.167 0.589 0 1.131 0.056 1.625 0.167s0.919 0.278 1.275 0.5c0.356 0.222 0.628 0.481 0.817 0.775s0.283 0.619 0.283 0.975v1.083h-8zM13 12v-1.083c0-0.289-0.036-0.561-0.108-0.817s-0.181-0.494-0.325-0.717c0.122-0.022 0.247-0.036 0.375-0.042s0.258-0.008 0.392-0.008c0.8 0 1.444 0.147 1.933 0.442s0.733 0.686 0.733 1.175v1.050h-3zM5.417 10.667h5.183c-0.111-0.222-0.419-0.417-0.925-0.583s-1.064-0.25-1.675-0.25c-0.611 0-1.169 0.083-1.675 0.25s-0.808 0.361-0.908 0.583zM2.667 8.667c-0.367 0-0.681-0.131-0.942-0.392s-0.392-0.575-0.392-0.942c0-0.378 0.131-0.694 0.392-0.95s0.575-0.383 0.942-0.383c0.378 0 0.694 0.128 0.95 0.383s0.383 0.572 0.383 0.95c0 0.367-0.128 0.681-0.383 0.942s-0.572 0.392-0.95 0.392zM13.333 8.667c-0.367 0-0.681-0.131-0.942-0.392s-0.392-0.575-0.392-0.942c0-0.378 0.131-0.694 0.392-0.95s0.575-0.383 0.942-0.383c0.378 0 0.694 0.128 0.95 0.383s0.383 0.572 0.383 0.95c0 0.367-0.128 0.681-0.383 0.942s-0.572 0.392-0.95 0.392zM8 8c-0.556 0-1.028-0.194-1.417-0.583s-0.583-0.861-0.583-1.417c0-0.567 0.194-1.042 0.583-1.425s0.861-0.575 1.417-0.575c0.567 0 1.042 0.192 1.425 0.575s0.575 0.858 0.575 1.425c0 0.556-0.192 1.028-0.575 1.417s-0.858 0.583-1.425 0.583zM8 6.667c0.189 0 0.347-0.064 0.475-0.192s0.192-0.286 0.192-0.475-0.064-0.347-0.192-0.475c-0.128-0.128-0.286-0.192-0.475-0.192s-0.347 0.064-0.475 0.192c-0.128 0.128-0.192 0.286-0.192 0.475s0.064 0.347 0.192 0.475c0.128 0.128 0.286 0.192 0.475 0.192z"></path>
  </symbol>
  <symbol id="helpClinic" viewBox="0 0 16 16">
  <path fill="currentColor" d="M8 11.333c0.189 0 0.347-0.064 0.475-0.192s0.192-0.286 0.192-0.475v-2c0-0.189-0.064-0.347-0.192-0.475s-0.286-0.192-0.475-0.192c-0.189 0-0.347 0.064-0.475 0.192s-0.192 0.286-0.192 0.475v2c0 0.189 0.064 0.347 0.192 0.475s0.286 0.192 0.475 0.192zM8 6.667c0.189 0 0.347-0.064 0.475-0.192s0.192-0.286 0.192-0.475-0.064-0.347-0.192-0.475c-0.128-0.128-0.286-0.192-0.475-0.192s-0.347 0.064-0.475 0.192c-0.128 0.128-0.192 0.286-0.192 0.475s0.064 0.347 0.192 0.475c0.128 0.128 0.286 0.192 0.475 0.192zM4 14c-0.367 0-0.681-0.131-0.942-0.392s-0.392-0.575-0.392-0.942v-6c0-0.211 0.047-0.411 0.142-0.6s0.225-0.344 0.392-0.467l4-3c0.233-0.178 0.5-0.267 0.8-0.267s0.567 0.089 0.8 0.267l4 3c0.167 0.122 0.297 0.278 0.392 0.467s0.142 0.389 0.142 0.6v6c0 0.367-0.131 0.681-0.392 0.942s-0.575 0.392-0.942 0.392h-8z"></path>
  </symbol>
  <symbol id="history" viewBox="0 0 16 16">
  <path fill="currentColor" d="M7.987 13.667c-1.444 0-2.702-0.475-3.774-1.426s-1.69-2.142-1.853-3.574h1.021c0.168 1.151 0.686 2.106 1.554 2.863s1.885 1.137 3.052 1.137c1.3 0 2.403-0.453 3.308-1.358s1.358-2.008 1.358-3.308c0-1.3-0.453-2.403-1.358-3.308s-2.008-1.358-3.308-1.358c-0.728 0-1.411 0.162-2.047 0.485s-1.185 0.768-1.645 1.335h1.744v1h-3.385v-3.385h1v1.579c0.541-0.638 1.189-1.134 1.944-1.486s1.551-0.529 2.39-0.529c0.786 0 1.523 0.149 2.21 0.446s1.286 0.702 1.797 1.213c0.511 0.511 0.915 1.11 1.213 1.798s0.446 1.424 0.446 2.21-0.149 1.523-0.446 2.21c-0.297 0.687-0.702 1.286-1.213 1.797s-1.11 0.915-1.797 1.213c-0.687 0.297-1.424 0.446-2.21 0.446zM9.988 10.685l-2.482-2.482v-3.536h1v3.131l2.185 2.185-0.703 0.703z"></path>
  </symbol>
  <symbol id="homeHealth" viewBox="0 0 16 16">
  <path fill="currentColor" d="M8.333 11.333h2v-1.667h1.667v-2h-1.667v-1.667h-2v1.667h-1.667v2h1.667v1.667zM4 14v-8l5.333-4 5.333 4v8h-10.667z"></path>
  </symbol>
  <symbol id="hotelClass" viewBox="0 0 16 16">
  <path fill="currentColor" d="M11.133 9.667l2.533-2.167 2 0.167-2.933 2.55 0.867 3.783-1.7-1.033-0.767-3.3zM9.567 4.8l-0.7-1.633 0.767-1.833 1.533 3.617-1.6-0.15zM2.883 14l1.083-4.683-3.633-3.15 4.8-0.417 1.867-4.417 1.867 4.417 4.8 0.417-3.633 3.15 1.083 4.683-4.117-2.483-4.117 2.483z"></path>
  </symbol>
  <symbol id="info" viewBox="0 0 16 16">
  <path fill="currentColor" d="M7.333 11.333h1.333v-4h-1.333v4zM8 6c0.189 0 0.347-0.064 0.475-0.192s0.192-0.286 0.192-0.475-0.064-0.347-0.192-0.475c-0.128-0.128-0.286-0.192-0.475-0.192s-0.347 0.064-0.475 0.192c-0.128 0.128-0.192 0.286-0.192 0.475s0.064 0.347 0.192 0.475c0.128 0.128 0.286 0.192 0.475 0.192zM8 14.667c-0.922 0-1.789-0.175-2.6-0.525s-1.517-0.825-2.117-1.425-1.075-1.306-1.425-2.117c-0.35-0.811-0.525-1.678-0.525-2.6s0.175-1.789 0.525-2.6c0.35-0.811 0.825-1.517 1.425-2.117s1.306-1.075 2.117-1.425c0.811-0.35 1.678-0.525 2.6-0.525s1.789 0.175 2.6 0.525c0.811 0.35 1.517 0.825 2.117 1.425s1.075 1.306 1.425 2.117c0.35 0.811 0.525 1.678 0.525 2.6s-0.175 1.789-0.525 2.6c-0.35 0.811-0.825 1.517-1.425 2.117s-1.306 1.075-2.117 1.425c-0.811 0.35-1.678 0.525-2.6 0.525z"></path>
  </symbol>
  <symbol id="labProfile" viewBox="0 0 16 16">
  <path fill="currentColor" d="M5.333 8v-1.333h5.333v1.333h-5.333zM5.333 5.333v-1.333h5.333v1.333h-5.333zM4 9.333h5c0.322 0 0.622 0.069 0.9 0.208s0.511 0.336 0.7 0.592l1.4 1.833v-9.3h-8v6.667zM4 13.333h7.367l-1.817-2.383c-0.067-0.089-0.147-0.158-0.242-0.208s-0.197-0.075-0.308-0.075h-5v2.667zM12 14.667h-8c-0.367 0-0.681-0.131-0.942-0.392s-0.392-0.575-0.392-0.942v-10.667c0-0.367 0.131-0.681 0.392-0.942s0.575-0.392 0.942-0.392h8c0.367 0 0.681 0.131 0.942 0.392s0.392 0.575 0.392 0.942v10.667c0 0.367-0.131 0.681-0.392 0.942s-0.575 0.392-0.942 0.392z"></path>
  </symbol>
  <symbol id="location" viewBox="0 0 16 16">
  <path fill="currentColor" d="M7.3 15.208v-1.267c-1.389-0.148-2.581-0.694-3.575-1.639s-1.569-2.077-1.725-3.397h-1.333v-1.267h1.333c0.156-1.32 0.731-2.452 1.725-3.397s2.186-1.491 3.575-1.639v-1.267h1.333v1.267c1.389 0.148 2.581 0.694 3.575 1.639s1.569 2.077 1.725 3.397h1.333v1.267h-1.333c-0.156 1.32-0.73 2.452-1.725 3.397s-2.186 1.491-3.575 1.639v1.267h-1.333zM7.967 12.705c1.289 0 2.389-0.433 3.3-1.299s1.367-1.911 1.367-3.136c0-1.225-0.456-2.27-1.367-3.136s-2.011-1.299-3.3-1.299c-1.289 0-2.389 0.433-3.3 1.299s-1.367 1.911-1.367 3.136c0 1.225 0.456 2.27 1.367 3.136s2.011 1.299 3.3 1.299zM7.967 10.805c-0.733 0-1.361-0.248-1.883-0.744s-0.783-1.093-0.783-1.79c0-0.697 0.261-1.293 0.783-1.79s1.15-0.744 1.883-0.744 1.361 0.248 1.883 0.744c0.522 0.496 0.783 1.093 0.783 1.79s-0.261 1.293-0.783 1.79c-0.522 0.496-1.15 0.744-1.883 0.744zM7.967 9.538c0.367 0 0.681-0.124 0.942-0.372s0.392-0.546 0.392-0.895-0.13-0.647-0.392-0.895c-0.261-0.248-0.575-0.372-0.942-0.372s-0.681 0.124-0.942 0.372c-0.261 0.248-0.392 0.546-0.392 0.895s0.13 0.647 0.392 0.895c0.261 0.248 0.575 0.372 0.942 0.372z"></path>
  </symbol>
  <symbol id="locationOn" viewBox="0 0 16 16">
  <path fill="currentColor" d="M8.001 7.91c0.332 0 0.615-0.118 0.851-0.354s0.353-0.52 0.353-0.852c0-0.332-0.118-0.615-0.354-0.851s-0.52-0.353-0.852-0.353c-0.332 0-0.615 0.118-0.851 0.354s-0.353 0.52-0.353 0.852c0 0.332 0.118 0.615 0.354 0.851s0.52 0.353 0.852 0.353zM8 13.009c1.304-1.168 2.302-2.287 2.994-3.36s1.038-2.011 1.038-2.817c0-1.215-0.386-2.214-1.158-2.997s-1.73-1.174-2.874-1.174c-1.144 0-2.101 0.391-2.874 1.174s-1.158 1.782-1.158 2.997c0 0.806 0.346 1.745 1.038 2.817s1.69 2.192 2.994 3.36zM8 14.34c-1.678-1.454-2.936-2.807-3.774-4.059s-1.258-2.402-1.258-3.449c0-1.538 0.498-2.784 1.493-3.736s2.175-1.429 3.539-1.429c1.364 0 2.544 0.476 3.539 1.429s1.493 2.198 1.493 3.736c0 1.047-0.419 2.197-1.258 3.449s-2.097 2.605-3.774 4.059z"></path>
  </symbol>
  <symbol id="manageSearch" viewBox="0 0 16 16">
  <path fill="currentColor" d="M1.333 12.667v-1.333h6.667v1.333h-6.667zM1.333 9.333v-1.333h3.333v1.333h-3.333zM1.333 6v-1.333h3.333v1.333h-3.333zM13.733 12.667l-2.567-2.567c-0.267 0.189-0.558 0.331-0.875 0.425s-0.636 0.142-0.958 0.142c-0.922 0-1.708-0.325-2.358-0.975s-0.975-1.436-0.975-2.358c0-0.922 0.325-1.708 0.975-2.358s1.436-0.975 2.358-0.975c0.922 0 1.708 0.325 2.358 0.975s0.975 1.436 0.975 2.358c0 0.322-0.047 0.642-0.142 0.958s-0.236 0.608-0.425 0.875l2.567 2.567-0.933 0.933zM9.333 9.333c0.556 0 1.028-0.194 1.417-0.583s0.583-0.861 0.583-1.417c0-0.556-0.194-1.028-0.583-1.417s-0.861-0.583-1.417-0.583c-0.556 0-1.028 0.194-1.417 0.583s-0.583 0.861-0.583 1.417c0 0.556 0.194 1.028 0.583 1.417s0.861 0.583 1.417 0.583z"></path>
  </symbol>
  <symbol id="moreHoriz" viewBox="0 0 16 16">
  <path fill="currentColor" d="M9.335 12c0 0.367-0.131 0.681-0.392 0.942s-0.575 0.392-0.942 0.392c-0.367 0-0.681-0.131-0.942-0.392s-0.392-0.575-0.392-0.942c0-0.367 0.131-0.681 0.392-0.942s0.575-0.392 0.942-0.392c0.367 0 0.681 0.131 0.942 0.392s0.392 0.575 0.392 0.942zM9.335 8c0 0.367-0.131 0.681-0.392 0.942s-0.575 0.392-0.942 0.392c-0.367 0-0.681-0.131-0.942-0.392s-0.392-0.575-0.392-0.942c0-0.367 0.131-0.681 0.392-0.942s0.575-0.392 0.942-0.392c0.367 0 0.681 0.131 0.942 0.392s0.392 0.575 0.392 0.942zM9.335 4c0 0.367-0.131 0.681-0.392 0.942s-0.575 0.392-0.942 0.392c-0.367 0-0.681-0.131-0.942-0.392s-0.392-0.575-0.392-0.942c0-0.367 0.131-0.681 0.392-0.942s0.575-0.392 0.942-0.392c0.367 0 0.681 0.131 0.942 0.392s0.392 0.575 0.392 0.942z"></path>
  </symbol>
  <symbol id="near" viewBox="0 0 16 16">
  <path fill="currentColor" d="M8.6 14l-1.9-4.7-4.7-1.9v-0.933l12-4.467-4.467 12h-0.933zM9.033 11.533l2.7-7.267-7.267 2.7 3.267 1.3 1.3 3.267z"></path>
  </symbol>
  <symbol id="notification" viewBox="0 0 16 16">
  <path fill="currentColor" d="M1.334 6.667c0-1.111 0.247-2.131 0.742-3.058s1.158-1.697 1.992-2.308l0.783 1.067c-0.667 0.489-1.197 1.106-1.592 1.85s-0.592 1.561-0.592 2.45h-1.333zM13.334 6.667c0-0.889-0.197-1.706-0.592-2.45s-0.925-1.361-1.592-1.85l0.783-1.067c0.833 0.611 1.497 1.381 1.992 2.308s0.742 1.947 0.742 3.058h-1.333zM2.667 12.667v-1.333h1.333v-4.667c0-0.922 0.278-1.742 0.833-2.458s1.278-1.186 2.167-1.408v-0.467c0-0.278 0.097-0.514 0.292-0.708s0.431-0.292 0.708-0.292 0.514 0.097 0.708 0.292c0.194 0.194 0.292 0.431 0.292 0.708v0.467c0.889 0.222 1.611 0.692 2.167 1.408s0.833 1.536 0.833 2.458v4.667h1.333v1.333h-10.667zM8 14.667c-0.367 0-0.681-0.131-0.942-0.392s-0.392-0.575-0.392-0.942h2.667c0 0.367-0.131 0.681-0.392 0.942s-0.575 0.392-0.942 0.392zM5.334 11.333h5.333v-4.667c0-0.733-0.261-1.361-0.783-1.883s-1.15-0.783-1.883-0.783c-0.733 0-1.361 0.261-1.883 0.783s-0.783 1.15-0.783 1.883v4.667z"></path>
  </symbol>
  <symbol id="offlinePin" viewBox="0 0 16 16">
  <path fill="currentColor" d="M4.8 12h6.4v-1.6h-6.4v1.6zM7.16 9.6l4.52-4.52-1.14-1.1-3.38 3.38-1.72-1.72-1.12 1.12 2.84 2.84zM8 16c-1.107 0-2.147-0.21-3.12-0.63s-1.82-0.99-2.54-1.71-1.29-1.567-1.71-2.54c-0.42-0.973-0.63-2.013-0.63-3.12s0.21-2.147 0.63-3.12c0.42-0.973 0.99-1.82 1.71-2.54s1.567-1.29 2.54-1.71c0.973-0.42 2.013-0.63 3.12-0.63s2.147 0.21 3.12 0.63c0.973 0.42 1.82 0.99 2.54 1.71s1.29 1.567 1.71 2.54c0.42 0.973 0.63 2.013 0.63 3.12s-0.21 2.147-0.63 3.12c-0.42 0.973-0.99 1.82-1.71 2.54s-1.567 1.29-2.54 1.71c-0.973 0.42-2.013 0.63-3.12 0.63z"></path>
  </symbol>
  <symbol id="openInView" viewBox="0 0 16 16">
  <path fill="currentColor" d="M3.333 14c-0.367 0-0.681-0.131-0.942-0.392s-0.392-0.575-0.392-0.942v-9.333c0-0.367 0.131-0.681 0.392-0.942s0.575-0.392 0.942-0.392h4.667v1.333h-4.667v9.333h9.333v-4.667h1.333v4.667c0 0.367-0.131 0.681-0.392 0.942s-0.575 0.392-0.942 0.392h-9.333zM6.467 10.467l-0.933-0.933 6.2-6.2h-2.4v-1.333h4.667v4.667h-1.333v-2.4l-6.2 6.2z"></path>
  </symbol>
  <symbol id="pageInfo" viewBox="0 0 16 16">
  <path fill="currentColor" d="M11.769 13.102c-0.625 0-1.153-0.216-1.584-0.647s-0.647-0.959-0.647-1.584c0-0.625 0.216-1.153 0.647-1.584s0.959-0.647 1.584-0.647c0.625 0 1.153 0.216 1.584 0.647s0.647 0.959 0.647 1.584c0 0.625-0.216 1.153-0.647 1.584s-0.959 0.647-1.584 0.647zM11.769 12.102c0.34 0 0.63-0.12 0.871-0.36s0.361-0.53 0.361-0.87c0-0.34-0.12-0.63-0.36-0.871s-0.53-0.361-0.87-0.361-0.63 0.12-0.871 0.36c-0.241 0.24-0.361 0.53-0.361 0.87s0.12 0.63 0.36 0.871c0.24 0.241 0.53 0.361 0.87 0.361zM3 11.372v-1h5.077v1h-5.077zM4.231 7.359c-0.625 0-1.153-0.216-1.584-0.647s-0.647-0.959-0.647-1.584c0-0.625 0.216-1.152 0.647-1.584s0.959-0.647 1.584-0.647c0.625 0 1.152 0.216 1.584 0.647s0.647 0.959 0.647 1.584c0 0.625-0.216 1.153-0.647 1.584s-0.959 0.647-1.584 0.647zM4.23 6.359c0.34 0 0.63-0.12 0.87-0.36s0.361-0.53 0.361-0.87-0.12-0.63-0.36-0.87c-0.24-0.241-0.53-0.361-0.87-0.361s-0.63 0.12-0.871 0.36c-0.241 0.24-0.361 0.53-0.361 0.87s0.12 0.63 0.36 0.871c0.24 0.241 0.53 0.361 0.87 0.361zM7.923 5.628v-1h5.077v1h-5.077z"></path>
  </symbol>
  <symbol id="person" viewBox="0 0 16 16">
  <path fill="currentColor" d="M8 8c-0.733 0-1.361-0.261-1.883-0.783s-0.783-1.15-0.783-1.883 0.261-1.361 0.783-1.883c0.522-0.522 1.15-0.783 1.883-0.783s1.361 0.261 1.883 0.783c0.522 0.522 0.783 1.15 0.783 1.883s-0.261 1.361-0.783 1.883c-0.522 0.522-1.15 0.783-1.883 0.783zM2.667 13.333v-1.867c0-0.378 0.097-0.725 0.292-1.042s0.453-0.558 0.775-0.725c0.689-0.344 1.389-0.603 2.1-0.775s1.433-0.258 2.167-0.258c0.733 0 1.456 0.086 2.167 0.258s1.411 0.431 2.1 0.775c0.322 0.167 0.581 0.408 0.775 0.725s0.292 0.664 0.292 1.042v1.867h-10.667zM4 12h8v-0.533c0-0.122-0.031-0.233-0.092-0.333s-0.142-0.178-0.242-0.233c-0.6-0.3-1.206-0.525-1.817-0.675s-1.228-0.225-1.85-0.225-1.239 0.075-1.85 0.225c-0.611 0.15-1.217 0.375-1.817 0.675-0.1 0.056-0.181 0.133-0.242 0.233s-0.092 0.211-0.092 0.333v0.533zM8 6.667c0.367 0 0.681-0.131 0.942-0.392s0.392-0.575 0.392-0.942-0.131-0.681-0.392-0.942c-0.261-0.261-0.575-0.392-0.942-0.392s-0.681 0.131-0.942 0.392c-0.261 0.261-0.392 0.575-0.392 0.942s0.131 0.681 0.392 0.942c0.261 0.261 0.575 0.392 0.942 0.392z"></path>
  </symbol>
  <symbol id="satr" viewBox="0 0 16 16">
  <path fill="currentColor" d="M2.382 10.027c-0.010 0.062-0.021 0.122-0.031 0.18s-0.020 0.115-0.031 0.171c-0.010 0.055-0.021 0.109-0.031 0.161s-0.021 0.103-0.031 0.153c-0.011 0.049-0.021 0.097-0.032 0.144s-0.022 0.092-0.033 0.136-0.023 0.087-0.035 0.128c-0.012 0.041-0.024 0.081-0.036 0.12s-0.025 0.076-0.038 0.113-0.027 0.072-0.040 0.106c-0.014 0.034-0.028 0.067-0.043 0.099s-0.030 0.063-0.046 0.093c-0.016 0.030-0.032 0.059-0.049 0.087s-0.034 0.055-0.052 0.081-0.037 0.052-0.056 0.076c-0.019 0.024-0.039 0.048-0.060 0.071s-0.042 0.045-0.064 0.066c-0.022 0.021-0.045 0.042-0.069 0.062s-0.048 0.039-0.074 0.058-0.052 0.037-0.079 0.054c-0.027 0.017-0.055 0.034-0.084 0.051s-0.059 0.032-0.090 0.047c-0.031 0.015-0.063 0.030-0.096 0.045s-0.067 0.029-0.102 0.042c-0.035 0.014-0.071 0.027-0.109 0.040s-0.076 0.026-0.116 0.038c-0.040 0.012-0.081 0.025-0.123 0.037s-0.086 0.024-0.13 0.036c-0.045 0.012-0.091 0.023-0.138 0.035s-0.096 0.023-0.146 0.034c-0.050 0.011-0.102 0.023-0.154 0.034s-0.107 0.023-0.163 0.034c0.056 0.011 0.11 0.023 0.163 0.034s0.104 0.023 0.154 0.034 0.099 0.023 0.146 0.034c0.047 0.011 0.093 0.023 0.138 0.035s0.088 0.023 0.13 0.035 0.083 0.024 0.123 0.037c0.040 0.012 0.078 0.025 0.116 0.038s0.074 0.026 0.109 0.040 0.069 0.028 0.102 0.042c0.033 0.014 0.065 0.029 0.096 0.045s0.061 0.031 0.090 0.047 0.057 0.033 0.084 0.051c0.027 0.017 0.053 0.035 0.079 0.054s0.050 0.038 0.074 0.058c0.024 0.020 0.047 0.041 0.069 0.062s0.044 0.043 0.064 0.066 0.041 0.046 0.060 0.071c0.019 0.025 0.038 0.050 0.056 0.076s0.035 0.053 0.052 0.081c0.017 0.028 0.033 0.057 0.049 0.087s0.031 0.061 0.046 0.093 0.029 0.065 0.043 0.099c0.014 0.034 0.027 0.069 0.040 0.106s0.026 0.074 0.038 0.113c0.012 0.039 0.024 0.079 0.036 0.12s0.023 0.084 0.035 0.128 0.022 0.089 0.033 0.136c0.011 0.047 0.022 0.095 0.032 0.144s0.021 0.1 0.031 0.153c0.010 0.052 0.021 0.106 0.031 0.161s0.020 0.112 0.031 0.171c0.010 0.058 0.020 0.118 0.031 0.18 0.010-0.062 0.021-0.122 0.031-0.18s0.020-0.115 0.031-0.171c0.010-0.055 0.021-0.109 0.031-0.161s0.021-0.103 0.031-0.153c0.011-0.049 0.021-0.097 0.032-0.144s0.022-0.092 0.033-0.136 0.023-0.087 0.035-0.128c0.012-0.041 0.024-0.081 0.036-0.12s0.025-0.076 0.038-0.113 0.027-0.072 0.040-0.106c0.014-0.034 0.028-0.067 0.043-0.099s0.030-0.063 0.046-0.093c0.016-0.030 0.032-0.059 0.049-0.087s0.034-0.055 0.052-0.081 0.037-0.052 0.056-0.076c0.019-0.024 0.039-0.048 0.060-0.071s0.042-0.045 0.064-0.066c0.022-0.021 0.045-0.042 0.069-0.062s0.048-0.039 0.074-0.058c0.025-0.019 0.052-0.037 0.079-0.054s0.055-0.034 0.084-0.051 0.059-0.032 0.090-0.047c0.031-0.015 0.063-0.030 0.096-0.045s0.067-0.028 0.102-0.042c0.035-0.014 0.071-0.027 0.109-0.040s0.076-0.026 0.116-0.038c0.040-0.012 0.081-0.025 0.123-0.037s0.086-0.024 0.13-0.035c0.045-0.012 0.091-0.023 0.138-0.035s0.096-0.023 0.146-0.034c0.050-0.011 0.102-0.023 0.154-0.034s0.107-0.023 0.163-0.034c-0.056-0.011-0.11-0.023-0.163-0.034s-0.104-0.023-0.154-0.034-0.099-0.023-0.146-0.034c-0.047-0.011-0.093-0.023-0.138-0.035s-0.088-0.023-0.13-0.036c-0.042-0.012-0.083-0.024-0.123-0.037s-0.078-0.025-0.116-0.038c-0.037-0.013-0.074-0.026-0.109-0.040s-0.069-0.028-0.102-0.042-0.065-0.029-0.096-0.045c-0.031-0.015-0.061-0.031-0.090-0.047s-0.057-0.033-0.084-0.051c-0.027-0.017-0.053-0.035-0.079-0.054s-0.050-0.038-0.074-0.058c-0.024-0.020-0.047-0.041-0.069-0.062s-0.044-0.043-0.064-0.066c-0.021-0.023-0.041-0.047-0.060-0.071s-0.038-0.050-0.056-0.076-0.035-0.053-0.052-0.081c-0.017-0.028-0.033-0.057-0.049-0.087s-0.031-0.061-0.046-0.093-0.029-0.065-0.043-0.099c-0.014-0.034-0.027-0.070-0.040-0.106s-0.026-0.074-0.038-0.113c-0.012-0.039-0.024-0.079-0.036-0.12s-0.023-0.084-0.035-0.128c-0.011-0.044-0.022-0.089-0.033-0.136s-0.022-0.095-0.032-0.144c-0.011-0.049-0.021-0.1-0.031-0.153s-0.021-0.106-0.031-0.161c-0.010-0.055-0.020-0.112-0.031-0.171s-0.020-0.118-0.031-0.18z"></path>
  <path fill="currentColor" d="M6.174 13.42c-0.005 0.030-0.010 0.058-0.015 0.086s-0.010 0.055-0.015 0.082-0.010 0.052-0.015 0.077c-0.005 0.025-0.010 0.049-0.015 0.073s-0.010 0.047-0.015 0.069c-0.005 0.022-0.010 0.044-0.016 0.065s-0.011 0.041-0.017 0.061c-0.006 0.020-0.011 0.039-0.017 0.058s-0.012 0.037-0.018 0.054c-0.006 0.017-0.013 0.034-0.019 0.051s-0.014 0.032-0.021 0.048c-0.007 0.015-0.014 0.030-0.022 0.045s-0.015 0.028-0.023 0.042c-0.008 0.013-0.016 0.026-0.025 0.039s-0.018 0.025-0.027 0.036c-0.009 0.012-0.019 0.023-0.029 0.034s-0.020 0.021-0.031 0.032c-0.011 0.010-0.022 0.020-0.033 0.030s-0.023 0.019-0.035 0.028c-0.012 0.009-0.025 0.018-0.038 0.026s-0.026 0.016-0.040 0.024c-0.014 0.008-0.028 0.015-0.043 0.023s-0.030 0.014-0.046 0.021c-0.016 0.007-0.032 0.014-0.049 0.020s-0.034 0.013-0.052 0.019c-0.018 0.006-0.036 0.012-0.055 0.018s-0.039 0.012-0.059 0.018c-0.020 0.006-0.041 0.011-0.062 0.017s-0.043 0.011-0.066 0.017c-0.023 0.005-0.046 0.011-0.070 0.016s-0.049 0.011-0.074 0.016-0.051 0.011-0.078 0.016c0.027 0.005 0.053 0.011 0.078 0.016s0.050 0.011 0.074 0.016c0.024 0.005 0.047 0.011 0.070 0.016s0.045 0.011 0.066 0.017c0.021 0.006 0.042 0.011 0.062 0.017s0.040 0.012 0.059 0.018c0.019 0.006 0.038 0.012 0.055 0.018s0.035 0.013 0.052 0.019c0.017 0.007 0.033 0.013 0.049 0.020s0.031 0.014 0.046 0.021 0.029 0.015 0.043 0.023 0.027 0.016 0.040 0.024c0.013 0.008 0.026 0.017 0.038 0.026s0.024 0.018 0.035 0.028c0.011 0.010 0.022 0.019 0.033 0.030s0.021 0.021 0.031 0.032c0.010 0.011 0.019 0.022 0.029 0.034s0.018 0.024 0.027 0.036c0.009 0.013 0.017 0.026 0.025 0.039s0.016 0.027 0.023 0.042c0.008 0.014 0.015 0.029 0.022 0.045s0.014 0.031 0.021 0.048 0.013 0.033 0.019 0.051c0.006 0.017 0.012 0.036 0.018 0.054s0.012 0.038 0.017 0.058c0.006 0.020 0.011 0.040 0.017 0.061s0.011 0.043 0.016 0.065c0.005 0.022 0.010 0.045 0.015 0.069s0.010 0.048 0.015 0.073c0.005 0.025 0.010 0.051 0.015 0.077s0.010 0.054 0.015 0.082c0.005 0.028 0.010 0.057 0.015 0.086 0.005-0.030 0.010-0.058 0.015-0.086s0.010-0.055 0.015-0.082c0.005-0.027 0.010-0.052 0.015-0.077s0.010-0.049 0.015-0.073 0.010-0.047 0.015-0.069c0.005-0.022 0.011-0.044 0.016-0.065s0.011-0.041 0.017-0.061c0.006-0.020 0.011-0.039 0.017-0.058s0.012-0.037 0.018-0.054c0.006-0.017 0.013-0.034 0.019-0.051s0.014-0.032 0.021-0.048c0.007-0.015 0.014-0.030 0.022-0.045s0.015-0.028 0.023-0.042c0.008-0.013 0.016-0.026 0.025-0.039s0.018-0.025 0.027-0.036c0.009-0.012 0.019-0.023 0.029-0.034s0.020-0.021 0.031-0.032c0.011-0.010 0.022-0.020 0.033-0.030s0.023-0.019 0.035-0.028 0.025-0.018 0.038-0.026 0.026-0.016 0.040-0.024c0.014-0.008 0.028-0.015 0.043-0.023s0.030-0.014 0.046-0.021c0.016-0.007 0.032-0.014 0.049-0.020s0.034-0.013 0.052-0.019c0.018-0.006 0.036-0.012 0.055-0.018s0.039-0.012 0.059-0.018c0.020-0.006 0.041-0.011 0.062-0.017s0.043-0.011 0.066-0.017c0.023-0.005 0.046-0.011 0.070-0.016s0.049-0.011 0.074-0.016c0.025-0.005 0.051-0.011 0.078-0.016-0.027-0.005-0.053-0.011-0.078-0.016s-0.050-0.011-0.074-0.016c-0.024-0.005-0.047-0.011-0.070-0.016s-0.045-0.011-0.066-0.017c-0.021-0.006-0.042-0.011-0.062-0.017s-0.040-0.012-0.059-0.018c-0.019-0.006-0.037-0.012-0.055-0.018s-0.035-0.013-0.052-0.019c-0.017-0.007-0.033-0.013-0.049-0.020s-0.031-0.014-0.046-0.021c-0.015-0.007-0.029-0.015-0.043-0.023s-0.027-0.016-0.040-0.024-0.026-0.017-0.038-0.026-0.024-0.018-0.035-0.028c-0.011-0.010-0.022-0.019-0.033-0.030s-0.021-0.021-0.031-0.032c-0.010-0.011-0.019-0.022-0.029-0.034s-0.018-0.024-0.027-0.036c-0.009-0.013-0.017-0.026-0.025-0.039s-0.016-0.027-0.023-0.042-0.015-0.029-0.022-0.045-0.014-0.031-0.021-0.048-0.013-0.033-0.019-0.051c-0.006-0.017-0.012-0.036-0.018-0.054s-0.012-0.038-0.017-0.058c-0.006-0.020-0.011-0.040-0.017-0.061s-0.011-0.043-0.016-0.065c-0.005-0.022-0.010-0.045-0.015-0.069s-0.010-0.048-0.015-0.073c-0.005-0.025-0.010-0.051-0.015-0.077s-0.010-0.054-0.015-0.082c-0.005-0.028-0.010-0.057-0.015-0.086z"></path>
  <path fill="currentColor" d="M10.699 0c-0.005 0.030-0.010 0.058-0.015 0.086s-0.010 0.055-0.015 0.082-0.010 0.052-0.015 0.077c-0.005 0.025-0.010 0.049-0.015 0.073s-0.010 0.047-0.015 0.069c-0.005 0.022-0.011 0.044-0.016 0.065s-0.011 0.041-0.017 0.061-0.011 0.039-0.017 0.058c-0.006 0.019-0.012 0.037-0.018 0.054s-0.013 0.034-0.019 0.051-0.014 0.032-0.021 0.048c-0.007 0.015-0.014 0.030-0.022 0.045s-0.015 0.028-0.023 0.042c-0.008 0.013-0.016 0.026-0.025 0.039s-0.018 0.025-0.027 0.036-0.019 0.023-0.029 0.034-0.020 0.021-0.031 0.032c-0.011 0.010-0.022 0.020-0.033 0.030s-0.023 0.019-0.035 0.028c-0.012 0.009-0.025 0.018-0.038 0.026s-0.027 0.016-0.040 0.024c-0.014 0.008-0.028 0.015-0.043 0.023s-0.030 0.014-0.046 0.021-0.032 0.014-0.049 0.020c-0.017 0.007-0.034 0.013-0.052 0.019s-0.036 0.012-0.055 0.018c-0.019 0.006-0.039 0.012-0.059 0.018s-0.041 0.011-0.062 0.017-0.043 0.011-0.066 0.017c-0.023 0.005-0.046 0.011-0.070 0.016s-0.049 0.011-0.074 0.016c-0.025 0.005-0.051 0.011-0.078 0.016 0.027 0.005 0.053 0.011 0.078 0.016s0.050 0.011 0.074 0.016c0.024 0.005 0.047 0.011 0.070 0.016s0.045 0.011 0.066 0.017c0.021 0.006 0.042 0.011 0.062 0.017s0.040 0.012 0.059 0.018 0.037 0.012 0.055 0.018c0.018 0.006 0.035 0.013 0.052 0.019s0.033 0.013 0.049 0.020 0.031 0.014 0.046 0.021c0.015 0.007 0.029 0.015 0.043 0.023s0.027 0.016 0.040 0.024c0.013 0.008 0.026 0.017 0.038 0.026s0.024 0.018 0.035 0.028c0.011 0.010 0.022 0.019 0.033 0.030s0.021 0.021 0.031 0.032 0.019 0.022 0.029 0.034 0.018 0.024 0.027 0.036c0.009 0.013 0.017 0.026 0.025 0.039s0.016 0.027 0.023 0.042c0.008 0.014 0.015 0.029 0.022 0.045s0.014 0.031 0.021 0.048c0.007 0.016 0.013 0.033 0.019 0.051s0.012 0.036 0.018 0.054c0.006 0.019 0.012 0.038 0.017 0.058s0.011 0.040 0.017 0.061c0.005 0.021 0.011 0.043 0.016 0.065s0.010 0.045 0.015 0.069c0.005 0.024 0.010 0.048 0.015 0.073s0.010 0.051 0.015 0.077 0.010 0.054 0.015 0.082c0.005 0.028 0.010 0.057 0.015 0.086 0.005-0.030 0.010-0.058 0.015-0.086s0.010-0.055 0.015-0.082c0.005-0.026 0.010-0.052 0.015-0.077s0.010-0.049 0.015-0.073 0.010-0.047 0.015-0.069c0.005-0.022 0.011-0.044 0.016-0.065s0.011-0.041 0.017-0.061c0.006-0.020 0.011-0.039 0.017-0.058s0.012-0.037 0.018-0.054 0.013-0.034 0.019-0.051c0.007-0.016 0.014-0.032 0.021-0.048s0.014-0.030 0.022-0.045c0.008-0.014 0.015-0.028 0.023-0.042s0.016-0.026 0.025-0.039c0.009-0.013 0.018-0.025 0.027-0.036s0.019-0.023 0.029-0.034c0.010-0.011 0.020-0.022 0.031-0.032s0.022-0.020 0.033-0.030 0.023-0.019 0.035-0.028 0.025-0.018 0.038-0.026c0.013-0.008 0.026-0.016 0.040-0.024s0.028-0.015 0.043-0.023c0.015-0.007 0.030-0.014 0.046-0.021s0.032-0.014 0.049-0.020c0.017-0.007 0.034-0.013 0.052-0.019s0.036-0.012 0.055-0.018 0.039-0.012 0.059-0.018c0.020-0.006 0.041-0.011 0.062-0.017s0.043-0.011 0.066-0.017c0.023-0.005 0.046-0.011 0.070-0.016s0.049-0.011 0.074-0.016c0.025-0.005 0.051-0.011 0.078-0.016-0.027-0.005-0.053-0.011-0.078-0.016s-0.050-0.011-0.074-0.016c-0.024-0.005-0.047-0.011-0.070-0.016s-0.045-0.011-0.066-0.017c-0.021-0.006-0.042-0.011-0.062-0.017s-0.040-0.012-0.059-0.018c-0.019-0.006-0.037-0.012-0.055-0.018s-0.035-0.013-0.052-0.019c-0.017-0.007-0.033-0.013-0.049-0.020s-0.031-0.014-0.046-0.021c-0.015-0.007-0.029-0.015-0.043-0.023s-0.027-0.016-0.040-0.024c-0.013-0.008-0.026-0.017-0.038-0.026s-0.024-0.018-0.035-0.028c-0.011-0.010-0.022-0.019-0.033-0.030s-0.021-0.021-0.031-0.032-0.019-0.022-0.029-0.034-0.018-0.024-0.027-0.036c-0.009-0.013-0.017-0.026-0.025-0.039s-0.016-0.027-0.023-0.042c-0.007-0.014-0.015-0.029-0.022-0.045s-0.014-0.031-0.021-0.048c-0.007-0.016-0.013-0.033-0.019-0.051s-0.012-0.035-0.018-0.054c-0.006-0.019-0.012-0.038-0.017-0.058s-0.011-0.040-0.017-0.061c-0.005-0.021-0.011-0.043-0.016-0.065s-0.010-0.045-0.015-0.069-0.010-0.048-0.015-0.073c-0.005-0.025-0.010-0.051-0.015-0.077s-0.010-0.054-0.015-0.082c-0.005-0.028-0.010-0.057-0.015-0.086z"></path>
  <path fill="currentColor" d="M13.618 2.11c-0.010 0.062-0.020 0.122-0.031 0.18s-0.020 0.115-0.031 0.171c-0.010 0.055-0.020 0.109-0.031 0.161s-0.021 0.103-0.031 0.153c-0.011 0.049-0.021 0.097-0.032 0.144s-0.022 0.092-0.033 0.136c-0.011 0.044-0.023 0.087-0.035 0.128s-0.024 0.081-0.036 0.12c-0.012 0.039-0.025 0.076-0.038 0.113s-0.027 0.072-0.040 0.106-0.028 0.067-0.043 0.099c-0.015 0.032-0.030 0.063-0.046 0.093s-0.032 0.059-0.049 0.087c-0.017 0.028-0.034 0.055-0.052 0.081s-0.037 0.052-0.056 0.076-0.039 0.048-0.060 0.071c-0.021 0.023-0.042 0.045-0.064 0.066s-0.045 0.042-0.069 0.062c-0.024 0.020-0.048 0.039-0.074 0.058s-0.052 0.037-0.079 0.054c-0.027 0.017-0.055 0.034-0.084 0.051s-0.059 0.032-0.090 0.048c-0.031 0.015-0.063 0.030-0.096 0.045s-0.067 0.029-0.102 0.042c-0.035 0.014-0.071 0.027-0.109 0.040s-0.076 0.026-0.116 0.038-0.081 0.025-0.123 0.037c-0.042 0.012-0.086 0.024-0.13 0.035s-0.091 0.023-0.138 0.035c-0.047 0.011-0.096 0.023-0.146 0.034s-0.102 0.023-0.155 0.034-0.107 0.023-0.163 0.034c0.056 0.011 0.11 0.023 0.163 0.034s0.104 0.023 0.155 0.034c0.050 0.011 0.099 0.023 0.146 0.034s0.093 0.023 0.138 0.035c0.045 0.012 0.088 0.023 0.13 0.035s0.083 0.024 0.123 0.037c0.040 0.012 0.078 0.025 0.116 0.038s0.074 0.026 0.109 0.040c0.035 0.014 0.069 0.028 0.102 0.042s0.065 0.029 0.096 0.045 0.061 0.031 0.090 0.047c0.029 0.016 0.057 0.033 0.084 0.051s0.053 0.035 0.079 0.054 0.050 0.038 0.074 0.058c0.024 0.020 0.047 0.040 0.069 0.062s0.044 0.043 0.064 0.066c0.021 0.023 0.041 0.047 0.060 0.071s0.038 0.050 0.056 0.076c0.018 0.026 0.035 0.053 0.052 0.081s0.033 0.057 0.049 0.087c0.016 0.030 0.031 0.061 0.046 0.093s0.029 0.065 0.043 0.099c0.014 0.034 0.027 0.070 0.040 0.106s0.026 0.074 0.038 0.113c0.012 0.039 0.024 0.079 0.036 0.12s0.023 0.084 0.035 0.128c0.011 0.044 0.022 0.089 0.033 0.136s0.022 0.095 0.032 0.144c0.011 0.049 0.021 0.1 0.031 0.153s0.021 0.106 0.031 0.161c0.010 0.055 0.020 0.112 0.031 0.171s0.020 0.118 0.031 0.18c0.010-0.062 0.021-0.122 0.031-0.18s0.020-0.115 0.031-0.171c0.010-0.055 0.021-0.109 0.031-0.161s0.021-0.103 0.031-0.153c0.011-0.049 0.021-0.097 0.032-0.144s0.022-0.092 0.033-0.136 0.023-0.087 0.035-0.128c0.012-0.041 0.024-0.081 0.036-0.12s0.025-0.076 0.038-0.113c0.013-0.036 0.027-0.072 0.040-0.106s0.028-0.067 0.043-0.099c0.015-0.032 0.030-0.063 0.046-0.093s0.032-0.059 0.049-0.087c0.017-0.028 0.034-0.055 0.052-0.081s0.037-0.052 0.056-0.076c0.019-0.024 0.039-0.048 0.060-0.071s0.042-0.045 0.064-0.066c0.022-0.021 0.045-0.042 0.069-0.062s0.048-0.039 0.074-0.058c0.025-0.019 0.052-0.037 0.079-0.054s0.055-0.034 0.084-0.051c0.029-0.016 0.059-0.032 0.090-0.047s0.063-0.030 0.096-0.045c0.033-0.014 0.067-0.029 0.102-0.042s0.071-0.027 0.109-0.040 0.076-0.026 0.116-0.038c0.040-0.012 0.081-0.025 0.123-0.037s0.086-0.024 0.13-0.035 0.091-0.023 0.138-0.035c0.047-0.011 0.096-0.023 0.146-0.034s0.102-0.023 0.154-0.034 0.107-0.023 0.163-0.034c-0.056-0.011-0.11-0.023-0.163-0.034s-0.104-0.023-0.154-0.034c-0.050-0.011-0.099-0.023-0.146-0.034s-0.093-0.023-0.138-0.035-0.088-0.023-0.13-0.035c-0.042-0.012-0.083-0.024-0.123-0.037s-0.078-0.025-0.116-0.038-0.074-0.026-0.109-0.040c-0.035-0.014-0.069-0.028-0.102-0.042s-0.065-0.029-0.096-0.045c-0.031-0.015-0.061-0.031-0.090-0.048s-0.057-0.033-0.084-0.051c-0.027-0.017-0.053-0.035-0.079-0.054s-0.050-0.038-0.074-0.058c-0.024-0.020-0.047-0.040-0.069-0.062s-0.044-0.043-0.064-0.066c-0.021-0.023-0.041-0.046-0.060-0.071s-0.038-0.050-0.056-0.076c-0.018-0.026-0.035-0.053-0.052-0.081s-0.033-0.057-0.049-0.087c-0.016-0.030-0.031-0.061-0.046-0.093s-0.029-0.065-0.043-0.099c-0.014-0.034-0.027-0.070-0.040-0.106s-0.026-0.074-0.038-0.113c-0.012-0.039-0.024-0.079-0.036-0.12s-0.023-0.084-0.035-0.128c-0.011-0.044-0.022-0.089-0.033-0.136s-0.022-0.095-0.032-0.144c-0.011-0.049-0.021-0.1-0.031-0.153s-0.021-0.106-0.031-0.161c-0.010-0.055-0.020-0.112-0.031-0.171s-0.020-0.118-0.031-0.18z"></path>
  <path fill="currentColor" d="M8.28 1.081c-0.029 0.175-0.058 0.345-0.087 0.511s-0.058 0.327-0.087 0.484c-0.029 0.157-0.058 0.309-0.087 0.458s-0.059 0.292-0.089 0.433c-0.030 0.14-0.060 0.276-0.091 0.408s-0.062 0.26-0.094 0.385c-0.032 0.124-0.065 0.245-0.098 0.362s-0.068 0.231-0.103 0.341c-0.035 0.11-0.071 0.217-0.108 0.32s-0.075 0.204-0.115 0.301c-0.039 0.097-0.080 0.191-0.122 0.282s-0.085 0.179-0.13 0.264-0.091 0.167-0.139 0.247c-0.048 0.080-0.097 0.156-0.148 0.231s-0.104 0.146-0.159 0.215-0.111 0.136-0.17 0.201c-0.059 0.065-0.119 0.127-0.182 0.188s-0.128 0.119-0.195 0.175-0.137 0.111-0.209 0.164c-0.072 0.053-0.146 0.104-0.223 0.153s-0.157 0.097-0.239 0.143c-0.082 0.046-0.167 0.091-0.255 0.135s-0.178 0.086-0.272 0.127c-0.094 0.041-0.19 0.081-0.29 0.12s-0.203 0.077-0.309 0.114-0.215 0.073-0.328 0.108c-0.113 0.035-0.229 0.070-0.349 0.104s-0.243 0.068-0.37 0.101-0.257 0.066-0.392 0.098c-0.134 0.032-0.272 0.065-0.414 0.097s-0.288 0.064-0.438 0.096c-0.15 0.032-0.304 0.064-0.462 0.096 0.158 0.032 0.312 0.064 0.462 0.096s0.296 0.064 0.438 0.096c0.142 0.032 0.28 0.064 0.414 0.097s0.265 0.065 0.392 0.098c0.127 0.033 0.25 0.067 0.37 0.101s0.236 0.069 0.349 0.104c0.113 0.035 0.222 0.071 0.328 0.108s0.209 0.075 0.309 0.114 0.196 0.079 0.29 0.12c0.094 0.041 0.184 0.083 0.272 0.127s0.173 0.088 0.255 0.135c0.082 0.046 0.162 0.094 0.239 0.143s0.151 0.1 0.223 0.153c0.072 0.053 0.142 0.107 0.209 0.164s0.132 0.115 0.195 0.175c0.063 0.060 0.124 0.123 0.182 0.188s0.115 0.132 0.17 0.201c0.055 0.069 0.108 0.141 0.159 0.216s0.101 0.151 0.148 0.231c0.048 0.080 0.094 0.162 0.139 0.247s0.088 0.173 0.13 0.264c0.042 0.091 0.083 0.185 0.122 0.282s0.078 0.197 0.115 0.3c0.037 0.103 0.073 0.21 0.108 0.32s0.069 0.224 0.103 0.341c0.033 0.117 0.066 0.238 0.098 0.362s0.063 0.253 0.094 0.385c0.031 0.132 0.061 0.268 0.091 0.408s0.060 0.284 0.089 0.433c0.029 0.148 0.058 0.301 0.087 0.458s0.058 0.318 0.087 0.484 0.058 0.336 0.087 0.511c0.029-0.175 0.058-0.345 0.087-0.511s0.058-0.327 0.087-0.484c0.029-0.157 0.058-0.309 0.087-0.458s0.059-0.292 0.089-0.433c0.030-0.14 0.060-0.276 0.091-0.408s0.062-0.26 0.094-0.385c0.032-0.124 0.065-0.245 0.098-0.362s0.068-0.231 0.103-0.341c0.035-0.11 0.071-0.217 0.108-0.32s0.075-0.203 0.115-0.3c0.039-0.097 0.080-0.191 0.122-0.282s0.085-0.179 0.13-0.264c0.045-0.085 0.091-0.167 0.139-0.247s0.097-0.156 0.148-0.231c0.051-0.074 0.104-0.146 0.159-0.216s0.111-0.136 0.17-0.201c0.059-0.065 0.119-0.127 0.182-0.188s0.128-0.119 0.195-0.175c0.067-0.057 0.137-0.111 0.209-0.164s0.146-0.104 0.223-0.153c0.077-0.049 0.157-0.097 0.239-0.143s0.167-0.091 0.255-0.135c0.088-0.043 0.178-0.086 0.272-0.127s0.19-0.081 0.29-0.12c0.1-0.039 0.203-0.077 0.309-0.114s0.215-0.073 0.328-0.108c0.113-0.035 0.229-0.070 0.348-0.104s0.243-0.068 0.37-0.101c0.127-0.033 0.257-0.066 0.392-0.098s0.272-0.065 0.414-0.097 0.288-0.064 0.438-0.096c0.15-0.032 0.304-0.064 0.462-0.096-0.158-0.032-0.312-0.064-0.462-0.096s-0.296-0.064-0.438-0.096c-0.142-0.032-0.28-0.064-0.414-0.097s-0.265-0.065-0.392-0.098c-0.127-0.033-0.25-0.067-0.37-0.101s-0.236-0.069-0.348-0.104-0.222-0.071-0.328-0.108c-0.106-0.037-0.209-0.075-0.309-0.114s-0.196-0.079-0.29-0.12c-0.094-0.041-0.184-0.083-0.272-0.127s-0.173-0.088-0.255-0.135c-0.082-0.046-0.162-0.094-0.239-0.143s-0.151-0.1-0.223-0.153-0.142-0.107-0.209-0.164c-0.067-0.057-0.132-0.115-0.195-0.175s-0.124-0.123-0.182-0.188c-0.059-0.065-0.115-0.132-0.17-0.201s-0.108-0.141-0.159-0.215c-0.051-0.074-0.101-0.151-0.148-0.231s-0.094-0.162-0.139-0.247c-0.045-0.085-0.088-0.173-0.13-0.264s-0.082-0.185-0.122-0.282c-0.039-0.097-0.078-0.197-0.115-0.301s-0.073-0.21-0.108-0.32c-0.035-0.11-0.069-0.224-0.103-0.341s-0.066-0.238-0.098-0.362-0.063-0.253-0.094-0.385c-0.031-0.132-0.061-0.268-0.091-0.408s-0.060-0.284-0.089-0.433c-0.029-0.148-0.058-0.301-0.087-0.458s-0.058-0.318-0.087-0.484c-0.029-0.166-0.058-0.336-0.087-0.511z"></path>
  </symbol>
  <symbol id="school" viewBox="0 0 16 16">
  <path fill="currentColor" d="M8 14l-4.667-2.533v-4l-2.667-1.467 7.333-4 7.333 4v5.333h-1.333v-4.6l-1.333 0.733v4l-4.667 2.533zM8 8.467l4.567-2.467-4.567-2.467-4.567 2.467 4.567 2.467zM8 12.483l3.333-1.8v-2.517l-3.333 1.833-3.333-1.833v2.517l3.333 1.8z"></path>
  </symbol>
  <symbol id="search" viewBox="0 0 16 16">
  <path fill="currentColor" d="M13.067 14l-4.2-4.2c-0.333 0.267-0.717 0.478-1.15 0.633s-0.894 0.233-1.383 0.233c-1.211 0-2.236-0.419-3.075-1.258s-1.258-1.864-1.258-3.075 0.419-2.236 1.258-3.075c0.839-0.839 1.864-1.258 3.075-1.258s2.236 0.419 3.075 1.258c0.839 0.839 1.258 1.864 1.258 3.075 0 0.489-0.078 0.95-0.233 1.383s-0.367 0.817-0.633 1.15l4.2 4.2-0.933 0.933zM6.333 9.333c0.833 0 1.542-0.292 2.125-0.875s0.875-1.292 0.875-2.125-0.292-1.542-0.875-2.125c-0.583-0.583-1.292-0.875-2.125-0.875s-1.542 0.292-2.125 0.875c-0.583 0.583-0.875 1.292-0.875 2.125s0.292 1.542 0.875 2.125c0.583 0.583 1.292 0.875 2.125 0.875z"></path>
  </symbol>
  <symbol id="SentimentVeryDissatisfied" viewBox="0 0 16 16">
  <path fill="currentColor" d="M8 9.2c-0.907 0-1.73 0.257-2.47 0.77s-1.277 1.19-1.61 2.030h8.16c-0.333-0.84-0.87-1.517-1.61-2.030s-1.563-0.77-2.47-0.77zM4.64 8l0.88-0.84 0.84 0.84 0.84-0.84-0.84-0.84 0.84-0.88-0.84-0.84-0.84 0.84-0.88-0.84-0.84 0.84 0.84 0.88-0.84 0.84 0.84 0.84zM9.64 8l0.84-0.84 0.88 0.84 0.84-0.84-0.84-0.84 0.84-0.88-0.84-0.84-0.88 0.84-0.84-0.84-0.84 0.84 0.84 0.88-0.84 0.84 0.84 0.84zM8 16c-1.107 0-2.147-0.21-3.12-0.63s-1.82-0.99-2.54-1.71-1.29-1.567-1.71-2.54c-0.42-0.973-0.63-2.013-0.63-3.12s0.21-2.147 0.63-3.12c0.42-0.973 0.99-1.82 1.71-2.54s1.567-1.29 2.54-1.71c0.973-0.42 2.013-0.63 3.12-0.63s2.147 0.21 3.12 0.63c0.973 0.42 1.82 0.99 2.54 1.71s1.29 1.567 1.71 2.54c0.42 0.973 0.63 2.013 0.63 3.12s-0.21 2.147-0.63 3.12c-0.42 0.973-0.99 1.82-1.71 2.54s-1.567 1.29-2.54 1.71c-0.973 0.42-2.013 0.63-3.12 0.63z"></path>
  </symbol>
  <symbol id="share" viewBox="0 0 16 16">
  <path fill="currentColor" d="M11.333 14.667c-0.556 0-1.028-0.194-1.417-0.583s-0.583-0.861-0.583-1.417c0-0.067 0.017-0.222 0.050-0.467l-4.683-2.733c-0.178 0.167-0.383 0.297-0.617 0.392s-0.483 0.142-0.75 0.142c-0.556 0-1.028-0.194-1.417-0.583s-0.583-0.861-0.583-1.417c0-0.556 0.194-1.028 0.583-1.417s0.861-0.583 1.417-0.583c0.267 0 0.517 0.047 0.75 0.142s0.439 0.225 0.617 0.392l4.683-2.733c-0.022-0.078-0.036-0.153-0.042-0.225s-0.008-0.153-0.008-0.242c0-0.556 0.194-1.028 0.583-1.417s0.861-0.583 1.417-0.583c0.556 0 1.028 0.194 1.417 0.583s0.583 0.861 0.583 1.417c0 0.556-0.194 1.028-0.583 1.417s-0.861 0.583-1.417 0.583c-0.267 0-0.517-0.047-0.75-0.142s-0.439-0.225-0.617-0.392l-4.683 2.733c0.022 0.078 0.036 0.153 0.042 0.225s0.008 0.153 0.008 0.242-0.003 0.169-0.008 0.242c-0.006 0.072-0.019 0.147-0.042 0.225l4.683 2.733c0.178-0.167 0.383-0.297 0.617-0.392s0.483-0.142 0.75-0.142c0.556 0 1.028 0.194 1.417 0.583s0.583 0.861 0.583 1.417c0 0.556-0.194 1.028-0.583 1.417s-0.861 0.583-1.417 0.583zM11.333 13.333c0.189 0 0.347-0.064 0.475-0.192s0.192-0.286 0.192-0.475-0.064-0.347-0.192-0.475c-0.128-0.128-0.286-0.192-0.475-0.192s-0.347 0.064-0.475 0.192c-0.128 0.128-0.192 0.286-0.192 0.475s0.064 0.347 0.192 0.475c0.128 0.128 0.286 0.192 0.475 0.192zM3.333 8.667c0.189 0 0.347-0.064 0.475-0.192s0.192-0.286 0.192-0.475-0.064-0.347-0.192-0.475c-0.128-0.128-0.286-0.192-0.475-0.192s-0.347 0.064-0.475 0.192c-0.128 0.128-0.192 0.286-0.192 0.475s0.064 0.347 0.192 0.475c0.128 0.128 0.286 0.192 0.475 0.192zM11.333 4c0.189 0 0.347-0.064 0.475-0.192s0.192-0.286 0.192-0.475-0.064-0.347-0.192-0.475c-0.128-0.128-0.286-0.192-0.475-0.192s-0.347 0.064-0.475 0.192c-0.128 0.128-0.192 0.286-0.192 0.475s0.064 0.347 0.192 0.475c0.128 0.128 0.286 0.192 0.475 0.192z"></path>
  </symbol>
  <symbol id="smile" viewBox="0 0 16 16">
  <path fill="currentColor" d="M10.8 7.2c0.333 0 0.617-0.117 0.85-0.35s0.35-0.517 0.35-0.85-0.117-0.617-0.35-0.85c-0.233-0.233-0.517-0.35-0.85-0.35s-0.617 0.117-0.85 0.35c-0.233 0.233-0.35 0.517-0.35 0.85s0.117 0.617 0.35 0.85c0.233 0.233 0.517 0.35 0.85 0.35zM5.2 7.2c0.333 0 0.617-0.117 0.85-0.35s0.35-0.517 0.35-0.85-0.117-0.617-0.35-0.85c-0.233-0.233-0.517-0.35-0.85-0.35s-0.617 0.117-0.85 0.35c-0.233 0.233-0.35 0.517-0.35 0.85s0.117 0.617 0.35 0.85c0.233 0.233 0.517 0.35 0.85 0.35zM8 12.4c0.907 0 1.73-0.257 2.47-0.77s1.277-1.19 1.61-2.030h-8.16c0.333 0.84 0.87 1.517 1.61 2.030s1.563 0.77 2.47 0.77zM8 16c-1.107 0-2.147-0.21-3.12-0.63s-1.82-0.99-2.54-1.71-1.29-1.567-1.71-2.54c-0.42-0.973-0.63-2.013-0.63-3.12s0.21-2.147 0.63-3.12c0.42-0.973 0.99-1.82 1.71-2.54s1.567-1.29 2.54-1.71c0.973-0.42 2.013-0.63 3.12-0.63s2.147 0.21 3.12 0.63c0.973 0.42 1.82 0.99 2.54 1.71s1.29 1.567 1.71 2.54c0.42 0.973 0.63 2.013 0.63 3.12s-0.21 2.147-0.63 3.12c-0.42 0.973-0.99 1.82-1.71 2.54s-1.567 1.29-2.54 1.71c-0.973 0.42-2.013 0.63-3.12 0.63zM8 14.4c1.787 0 3.3-0.62 4.54-1.86s1.86-2.753 1.86-4.54-0.62-3.3-1.86-4.54c-1.24-1.24-2.753-1.86-4.54-1.86s-3.3 0.62-4.54 1.86c-1.24 1.24-1.86 2.753-1.86 4.54s0.62 3.3 1.86 4.54c1.24 1.24 2.753 1.86 4.54 1.86z"></path>
  </symbol>
  <symbol id="star" viewBox="0 0 16 16">
  <path fill="currentColor" d="M8 0l2.774 4.181 4.834 1.346-3.119 3.931 0.213 5.014-4.702-1.752-4.702 1.752 0.213-5.014-3.119-3.931 4.834-1.346 2.774-4.181z"></path>
  </symbol>
  <symbol id="swap" viewBox="0 0 16 16">
  <path fill="currentColor" d="M4.936 8.436v-4.854l-1.89 1.89-0.713-0.703 3.103-3.103 3.103 3.103-0.713 0.703-1.89-1.89v4.854h-1zM9.224 14.333l-3.102-3.103 0.713-0.703 1.89 1.89v-4.854h1v4.854l1.89-1.89 0.713 0.703-3.103 3.103z"></path>
  </symbol>
  <symbol id="train" viewBox="0 0 16 16">
  <path fill="currentColor" d="M2.667 10.333v-6.333c0-0.589 0.153-1.058 0.458-1.408s0.708-0.617 1.208-0.8c0.5-0.183 1.069-0.306 1.708-0.367s1.292-0.092 1.958-0.092c0.733 0 1.425 0.031 2.075 0.092s1.217 0.183 1.7 0.367 0.864 0.45 1.142 0.8c0.278 0.35 0.417 0.819 0.417 1.408v6.333c0 0.656-0.225 1.208-0.675 1.658s-1.003 0.675-1.658 0.675l1 1v0.333h-1.333l-1.333-1.333h-2.667l-1.333 1.333h-1.333v-0.333l1-1c-0.656 0-1.208-0.225-1.658-0.675s-0.675-1.003-0.675-1.658zM4 6.667h3.333v-2h-3.333v2zM8.667 6.667h3.333v-2h-3.333v2zM5.667 10.667c0.289 0 0.528-0.094 0.717-0.283s0.283-0.428 0.283-0.717-0.094-0.528-0.283-0.717c-0.189-0.189-0.428-0.283-0.717-0.283s-0.528 0.094-0.717 0.283c-0.189 0.189-0.283 0.428-0.283 0.717s0.094 0.528 0.283 0.717c0.189 0.189 0.428 0.283 0.717 0.283zM10.333 10.667c0.289 0 0.528-0.094 0.717-0.283s0.283-0.428 0.283-0.717-0.094-0.528-0.283-0.717c-0.189-0.189-0.428-0.283-0.717-0.283s-0.528 0.094-0.717 0.283c-0.189 0.189-0.283 0.428-0.283 0.717s0.094 0.528 0.283 0.717c0.189 0.189 0.428 0.283 0.717 0.283z"></path>
  </symbol>
  <symbol id="travel" viewBox="0 0 16 16">
  <path fill="currentColor" d="M6.617 14.083l-1.65-3.067-3.067-1.65 1.183-1.167 2.417 0.417 1.7-1.7-5.283-2.25 1.4-1.433 6.417 1.133 2.067-2.067c0.256-0.256 0.572-0.383 0.95-0.383s0.694 0.128 0.95 0.383 0.383 0.569 0.383 0.942c0 0.372-0.128 0.686-0.383 0.942l-2.083 2.083 1.133 6.4-1.417 1.417-2.267-5.283-1.7 1.7 0.433 2.4-1.183 1.183z"></path>
  </symbol>
  <symbol id="travelExplore" viewBox="0 0 16 16">
  <path fill="currentColor" d="M8 14.667c-0.922 0-1.789-0.175-2.6-0.525s-1.517-0.825-2.117-1.425-1.075-1.306-1.425-2.117c-0.35-0.811-0.525-1.678-0.525-2.6s0.175-1.789 0.525-2.6c0.35-0.811 0.825-1.517 1.425-2.117s1.306-1.075 2.117-1.425c0.811-0.35 1.678-0.525 2.6-0.525 1.622 0 3.042 0.508 4.258 1.525s1.975 2.292 2.275 3.825h-1.367c-0.211-0.811-0.592-1.536-1.142-2.175s-1.225-1.119-2.025-1.442v0.267c0 0.367-0.131 0.681-0.392 0.942s-0.575 0.392-0.942 0.392h-1.333v1.333c0 0.189-0.064 0.347-0.192 0.475s-0.286 0.192-0.475 0.192h-1.333v1.333h1.333v2h-0.667l-3.2-3.2c-0.033 0.2-0.064 0.4-0.092 0.6s-0.042 0.4-0.042 0.6c0 1.456 0.511 2.706 1.533 3.75s2.289 1.572 3.8 1.583v1.333zM14.067 14.333l-2.133-2.133c-0.233 0.133-0.483 0.244-0.75 0.333s-0.55 0.133-0.85 0.133c-0.833 0-1.542-0.292-2.125-0.875s-0.875-1.292-0.875-2.125c0-0.833 0.292-1.542 0.875-2.125s1.292-0.875 2.125-0.875c0.833 0 1.542 0.292 2.125 0.875s0.875 1.292 0.875 2.125c0 0.3-0.044 0.583-0.133 0.85s-0.2 0.517-0.333 0.75l2.133 2.133-0.933 0.933zM10.334 11.333c0.467 0 0.861-0.161 1.183-0.483s0.483-0.717 0.483-1.183c0-0.467-0.161-0.861-0.483-1.183s-0.717-0.483-1.183-0.483c-0.467 0-0.861 0.161-1.183 0.483s-0.483 0.717-0.483 1.183c0 0.467 0.161 0.861 0.483 1.183s0.717 0.483 1.183 0.483z"></path>
  </symbol>
  <symbol id="verified" viewBox="0 0 16 16">
  <path fill="currentColor" d="M7.3 10.367l3.767-3.767-0.95-0.95-2.817 2.817-1.4-1.4-0.95 0.95 2.35 2.35zM8 14.667c-1.544-0.389-2.819-1.275-3.825-2.658s-1.508-2.919-1.508-4.608v-4.067l5.333-2 5.333 2v4.067c0 1.689-0.503 3.225-1.508 4.608s-2.281 2.269-3.825 2.658z"></path>
  </symbol>
  <symbol id="work" viewBox="0 0 16 16">
  <path fill="currentColor" d="M2.667 14c-0.367 0-0.681-0.131-0.942-0.392s-0.392-0.575-0.392-0.942v-7.333c0-0.367 0.131-0.681 0.392-0.942s0.575-0.392 0.942-0.392h2.667v-1.333c0-0.367 0.131-0.681 0.392-0.942s0.575-0.392 0.942-0.392h2.667c0.367 0 0.681 0.131 0.942 0.392s0.392 0.575 0.392 0.942v1.333h2.667c0.367 0 0.681 0.131 0.942 0.392s0.392 0.575 0.392 0.942v7.333c0 0.367-0.131 0.681-0.392 0.942s-0.575 0.392-0.942 0.392h-10.667zM2.667 12.667h10.667v-7.333h-10.667v7.333zM6.667 4h2.667v-1.333h-2.667v1.333z"></path>
  </symbol>
  <symbol id="arrowDropDown" viewBox="0 0 16 16">
  <path fill="currentColor" d="M8 10l-3.333-3.333h6.667l-3.333 3.333z"></path>
  </symbol>
  <symbol id="check" viewBox="0 0 16 16">
  <path fill="currentColor" d="M6.667 9.067l3.933-3.933c0.122-0.122 0.278-0.183 0.467-0.183s0.344 0.061 0.467 0.183 0.183 0.278 0.183 0.467c0 0.189-0.061 0.344-0.183 0.467l-4.4 4.4c-0.133 0.133-0.289 0.2-0.467 0.2s-0.333-0.067-0.467-0.2l-1.733-1.733c-0.122-0.122-0.183-0.278-0.183-0.467s0.061-0.344 0.183-0.467c0.122-0.122 0.278-0.183 0.467-0.183s0.344 0.061 0.467 0.183l1.267 1.267z"></path>
  </symbol>
  <symbol id="chevronRight" viewBox="0 0 16 16">
  <path fill="currentColor" d="M8 8.4l-2.6-2.6c-0.122-0.122-0.278-0.183-0.467-0.183s-0.344 0.061-0.467 0.183c-0.122 0.122-0.183 0.278-0.183 0.467s0.061 0.344 0.183 0.467l3.067 3.067c0.067 0.067 0.139 0.114 0.217 0.142s0.161 0.042 0.25 0.042 0.172-0.014 0.25-0.042c0.078-0.028 0.15-0.075 0.217-0.142l3.067-3.067c0.122-0.122 0.183-0.278 0.183-0.467s-0.061-0.344-0.183-0.467c-0.122-0.122-0.278-0.183-0.467-0.183s-0.344 0.061-0.467 0.183l-2.6 2.6z"></path>
  </symbol>
  <symbol id="facebook" viewBox="0 0 16 16">
  <path fill="currentColor" d="M14 3.833v8.333c0 1.010-0.823 1.833-1.833 1.833h-1.833v-4.667h1.207c0.17 0 0.313-0.127 0.333-0.293l0.123-1c0.013-0.093-0.017-0.19-0.080-0.26-0.063-0.073-0.153-0.113-0.25-0.113h-1.333v-1.167c0-0.367 0.3-0.667 0.667-0.667h0.667c0.183 0 0.333-0.15 0.333-0.333v-1.127c0-0.17-0.133-0.313-0.303-0.33-0.020-0.003-0.49-0.043-1.087-0.043-1.467 0-2.277 0.873-2.277 2.457v1.21h-1.333c-0.183 0-0.333 0.15-0.333 0.333v1c0 0.183 0.15 0.333 0.333 0.333h1.333v4.667h-4.5c-1.010 0-1.833-0.823-1.833-1.833v-8.333c0-1.010 0.823-1.833 1.833-1.833h8.333c1.010 0 1.833 0.823 1.833 1.833z"></path>
  </symbol>
  <symbol id="Frame" viewBox="0 0 16 16">
  <path fill="currentColor" d="M4.167 2c-1.195 0-2.167 0.972-2.167 2.167v7.667c0 1.195 0.972 2.167 2.167 2.167h7.667c1.195 0 2.167-0.972 2.167-2.167v-7.667c0-1.195-0.972-2.167-2.167-2.167h-7.667zM4.609 4.667h2.146l1.619 2.314 2.005-2.314h0.667l-2.37 2.745 2.744 3.922h-2.146l-1.783-2.549-2.202 2.549h-0.681l2.581-2.981-2.579-3.686zM5.645 5.232l3.884 5.536h0.854l-3.884-5.536h-0.854z"></path>
  </symbol>
  <symbol id="linkdien" viewBox="0 0 16 16">
  <path fill="currentColor" d="M12.167 2h-8.333c-1.011 0-1.833 0.823-1.833 1.833v8.333c0 1.011 0.823 1.833 1.833 1.833h8.333c1.011 0 1.833-0.823 1.833-1.833v-8.333c0-1.011-0.823-1.833-1.833-1.833zM6 11.333c0 0.184-0.149 0.333-0.333 0.333h-1c-0.184 0-0.333-0.149-0.333-0.333v-4.333c0-0.184 0.149-0.333 0.333-0.333h1c0.184 0 0.333 0.149 0.333 0.333v4.333zM5.167 6c-0.46 0-0.833-0.373-0.833-0.833s0.373-0.833 0.833-0.833c0.46 0 0.833 0.373 0.833 0.833s-0.373 0.833-0.833 0.833zM11.667 11.333c0 0.184-0.149 0.333-0.333 0.333h-1c-0.184 0-0.333-0.149-0.333-0.333v-2.5c0-0.46-0.374-0.833-0.833-0.833s-0.833 0.374-0.833 0.833v2.5c0 0.184-0.149 0.333-0.333 0.333h-1c-0.184 0-0.333-0.149-0.333-0.333v-4.333c0-0.184 0.149-0.333 0.333-0.333h1c0.184 0 0.333 0.149 0.333 0.333v0.18c0.354-0.318 0.821-0.514 1.333-0.514 1.103 0 2 0.897 2 2v2.667z"></path>
  </symbol>
  <symbol id="arrow2" viewBox="0 0 16 16">
    <path fill="currentColor" d="M3.6 13.333l-0.933-0.933 7.733-7.733h-4.4v-1.333h6.667v6.667h-1.333v-4.4l-7.733 7.733z"></path>
  </symbol>
  <symbol id="logout" viewBox="0 0 16 16">
    <path fill="currentColor" d="M3.333 14c-0.367 0-0.681-0.131-0.942-0.392s-0.392-0.575-0.392-0.942v-9.333c0-0.367 0.131-0.681 0.392-0.942s0.575-0.392 0.942-0.392h4.667v1.333h-4.667v9.333h4.667v1.333h-4.667zM10.667 11.333l-0.917-0.967 1.7-1.7h-5.45v-1.333h5.45l-1.7-1.7 0.917-0.967 3.333 3.333-3.333 3.333z"></path>
  </symbol>
  <symbol id="mail" viewBox="0 0 16 16">
    <path fill="currentColor" d="M2.667 13.333c-0.367 0-0.681-0.131-0.942-0.392s-0.392-0.575-0.392-0.942v-8c0-0.367 0.131-0.681 0.392-0.942s0.575-0.392 0.942-0.392h10.667c0.367 0 0.681 0.131 0.942 0.392s0.392 0.575 0.392 0.942v8c0 0.367-0.131 0.681-0.392 0.942s-0.575 0.392-0.942 0.392h-10.667zM8 8.667l-5.333-3.333v6.667h10.667v-6.667l-5.333 3.333zM8 7.333l5.333-3.333h-10.667l5.333 3.333zM2.667 5.333v0z"></path>
  </symbol>
  <symbol id="plus" viewBox="0 0 16 16">
    <path fill="currentColor" d="M7.333 8.667h-4v-1.333h4v-4h1.333v4h4v1.333h-4v4h-1.333v-4z"></path>
  </symbol>
  <symbol id="heartFilled" viewBox="0 0 32 32">
    <path fill="currentColor" d="M28.894 3.913c-3.425-2.919-8.519-2.394-11.662 0.85l-1.231 1.269-1.231-1.269c-3.137-3.244-8.238-3.769-11.662-0.85-3.925 3.35-4.131 9.363-0.619 12.994l12.094 12.488c0.781 0.806 2.050 0.806 2.831 0l12.094-12.488c3.519-3.631 3.313-9.644-0.613-12.994z"></path>
  </symbol>
  <symbol id="notVerified" viewBox="0 0 16 16">
    <path fill="currentColor" d="M8.667 10.333c0 0.368-0.298 0.667-0.667 0.667s-0.667-0.298-0.667-0.667v0c0-0.368 0.298-0.667 0.667-0.667s0.667 0.298 0.667 0.667v0zM8.5 4.833c0-0.276-0.224-0.5-0.5-0.5s-0.5 0.224-0.5 0.5v0 3c0 0.276 0.224 0.5 0.5 0.5s0.5-0.224 0.5-0.5v0-3z"></path>
    <path fill="currentColor" d="M7.64 0.425c0.108-0.036 0.231-0.057 0.36-0.057s0.252 0.021 0.368 0.059l-0.008-0.002 5.5 1.783c0.472 0.157 0.806 0.594 0.807 1.109v3.349c0 4.127-2.513 7.137-6.267 8.553-0.119 0.046-0.256 0.072-0.399 0.072s-0.281-0.027-0.407-0.075l0.008 0.003c-3.753-1.417-6.267-4.427-6.267-8.553v-3.349c0-0.507 0.327-0.953 0.807-1.109zM8.051 1.375c-0.015-0.005-0.033-0.008-0.051-0.008s-0.036 0.003-0.053 0.008l0.001-0-5.5 1.785c-0.067 0.022-0.115 0.085-0.115 0.158v3.349c0 3.641 2.187 6.322 5.62 7.617 0.014 0.005 0.030 0.008 0.047 0.008s0.033-0.003 0.048-0.009l-0.001 0c3.433-1.295 5.62-3.977 5.62-7.617v-3.349c-0-0.073-0.048-0.136-0.114-0.158l-0.001-0z"></path>
  </symbol>
</svg>